<?xml version="1.0" standalone="no"?>
<!DOCTYPE svg PUBLIC "-//W3C//DTD SVG 20010904//EN"
 "http://www.w3.org/TR/2001/REC-SVG-20010904/DTD/svg10.dtd">
<svg version="1.0" xmlns="http://www.w3.org/2000/svg"
 width="275.000000pt" height="240.000000pt" viewBox="0 0 275.000000 240.000000"
 preserveAspectRatio="xMidYMid meet">
<metadata>
Created by potrace 1.12, written by Peter Selinger 2001-2015
</metadata>
<g transform="translate(0.000000,240.000000) scale(0.100000,-0.100000)"
fill="#000000" stroke="none">
<path d="M1285 2113 c-66 -24 -117 -64 -154 -122 -130 -202 13 -464 254 -465
119 0 215 60 273 169 37 69 37 186 2 260 -67 139 -233 209 -375 158z m196
-104 c76 -38 114 -113 107 -205 -16 -188 -263 -251 -373 -96 -37 54 -47 150
-20 203 57 112 178 154 286 98z"/>
<path d="M947 1528 c-27 -3 -52 -9 -55 -13 -3 -3 2 -26 11 -50 9 -25 25 -65
34 -89 l17 -44 -37 -41 c-20 -22 -45 -58 -57 -81 l-20 -40 -60 0 -60 0 0 -172
0 -173 64 3 c64 2 65 2 92 -35 15 -21 43 -54 61 -73 l33 -35 -30 -45 c-17 -25
-30 -50 -30 -55 0 -6 26 -26 57 -45 32 -19 74 -45 95 -58 l37 -23 37 59 37 58
51 -13 c68 -19 294 -12 353 10 l42 16 40 -65 41 -65 38 23 c20 13 63 39 95 58
31 19 57 39 57 43 0 5 -16 36 -37 68 l-36 60 25 27 c58 62 108 172 108 238 0
22 6 37 18 43 17 9 18 6 14 -44 -4 -50 -2 -57 26 -85 43 -43 105 -36 132 16
18 34 7 110 -20 139 -28 30 -19 45 49 76 42 18 47 24 43 46 -3 14 -10 27 -17
30 -18 6 -88 -31 -133 -71 -29 -26 -45 -33 -75 -32 -37 1 -39 3 -56 54 -79
231 -359 374 -652 333 -83 -12 -85 -12 -132 14 -55 31 -131 44 -200 33z m124
-70 c19 -6 52 -23 74 -38 39 -25 42 -26 90 -12 82 23 227 19 315 -7 324 -98
439 -403 237 -627 -26 -29 -47 -55 -47 -58 0 -4 16 -31 35 -61 l34 -54 -41
-25 c-23 -14 -45 -23 -49 -20 -4 2 -22 29 -39 58 l-30 54 -73 -25 c-120 -43
-263 -42 -413 2 -17 5 -27 -3 -54 -44 -17 -28 -34 -51 -36 -51 -3 0 -22 12
-43 26 l-39 25 30 49 31 49 -59 58 c-33 32 -68 75 -79 96 -19 36 -21 37 -77
37 l-58 0 0 105 0 105 50 0 50 0 25 55 c13 30 47 80 75 109 29 30 50 59 47 63
-3 5 -17 39 -31 76 l-25 67 33 0 c18 0 48 -5 67 -12z m1013 -481 c8 -21 6 -31
-6 -43 -15 -15 -17 -15 -27 5 -13 24 -4 74 13 68 6 -2 15 -16 20 -30z"/>
</g>
</svg>
