<?xml version="1.0" standalone="no"?>
<!DOCTYPE svg PUBLIC "-//W3C//DTD SVG 20010904//EN"
 "http://www.w3.org/TR/2001/REC-SVG-20010904/DTD/svg10.dtd">
<svg version="1.0" xmlns="http://www.w3.org/2000/svg"
 width="271.000000pt" height="214.000000pt" viewBox="0 0 271.000000 214.000000"
 preserveAspectRatio="xMidYMid meet">
<metadata>
Created by potrace 1.12, written by Peter Selinger 2001-2015
</metadata>
<g transform="translate(0.000000,214.000000) scale(0.100000,-0.100000)"
fill="#000000" stroke="none">
<path d="M1160 1909 c-62 -24 -130 -74 -130 -94 0 -7 16 -23 35 -35 l35 -22
31 26 c87 74 285 69 362 -9 19 -19 34 -15 81 21 19 14 19 15 -9 44 -16 17 -54
43 -85 58 -47 23 -69 27 -160 29 -88 3 -114 0 -160 -18z"/>
<path d="M853 1730 c-163 -4 -184 -7 -210 -26 -60 -44 -63 -61 -63 -366 l0
-278 24 0 25 0 3 -224 c3 -210 4 -226 24 -253 38 -51 46 -52 654 -52 519 -1
568 0 599 17 69 35 71 43 74 287 l2 220 28 3 27 3 0 280 c0 307 -3 329 -58
367 -29 21 -38 22 -488 24 -253 2 -541 1 -641 -2z m1086 -70 c36 -19 41 -57
38 -300 l-2 -235 -212 -3 -213 -2 -5 27 c-21 106 -34 112 -207 114 -109 1
-141 -2 -160 -15 -30 -19 -48 -56 -48 -96 l0 -30 -245 0 -245 0 0 235 c0 248
5 279 47 304 24 14 1227 15 1252 1z m-494 -575 l0 -80 -32 -3 c-30 -3 -33 -1
-33 22 0 24 -3 26 -45 26 -42 0 -45 -2 -45 -26 0 -23 -3 -25 -32 -22 l-33 3
-3 69 c-2 38 -1 75 2 83 4 11 29 13 113 11 l108 -3 0 -80z m-315 -70 c0 -35
25 -82 51 -96 12 -6 40 -12 63 -13 39 -1 41 -3 44 -33 3 -32 5 -33 48 -33 44
0 48 4 45 42 -2 16 30 32 55 27 46 -8 94 32 103 87 l6 39 188 3 187 2 0 -200
c0 -187 -1 -201 -20 -220 -20 -20 -33 -20 -594 -20 -509 0 -576 2 -590 16 -14
13 -16 47 -16 220 l0 204 215 0 215 0 0 -25z"/>
</g>
</svg>
