<?xml version="1.0" standalone="no"?>
<!DOCTYPE svg PUBLIC "-//W3C//DTD SVG 20010904//EN"
 "http://www.w3.org/TR/2001/REC-SVG-20010904/DTD/svg10.dtd">
<svg version="1.0" xmlns="http://www.w3.org/2000/svg"
 width="224.000000pt" height="192.000000pt" viewBox="0 0 224.000000 192.000000"
 preserveAspectRatio="xMidYMid meet">
<metadata>
Created by potrace 1.12, written by Peter Selinger 2001-2015
</metadata>
<g transform="translate(0.000000,192.000000) scale(0.100000,-0.100000)"
fill="#777" stroke="none">
<path d="M1104 1550 c-572 -5 -559 -4 -585 -51 -5 -11 -9 -175 -10 -393 0
-325 2 -378 16 -399 19 -30 55 -47 103 -48 37 -1 37 -1 7 -8 -16 -4 -78 -38
-137 -75 l-106 -67 -4 -58 c-1 -32 -2 -66 0 -75 3 -15 70 -16 753 -16 l749 0
0 74 0 73 -120 74 c-101 63 -116 75 -97 80 38 10 66 28 77 49 14 26 14 763 1
788 -15 28 -37 43 -73 50 -18 4 -276 5 -574 2z m561 -445 l0 -350 -530 0 -530
0 -3 340 c-1 187 0 346 3 353 3 10 114 12 532 10 l528 -3 0 -350z m-268 -452
c-137 -2 -357 -2 -490 0 -133 1 -21 2 248 2 270 0 378 -1 242 -2z m294 -99
c33 -19 59 -39 59 -44 0 -10 -1206 -13 -1222 -4 -6 4 16 24 49 44 l58 38 499
1 498 1 59 -36z m139 -109 l0 -25 -690 0 -690 0 0 25 0 25 690 0 690 0 0 -25z"/>
<path d="M698 1223 c-2 -76 -1 -144 1 -150 2 -10 34 -13 117 -13 l114 0 0 150
0 150 -114 0 -115 0 -3 -137z m182 -13 l0 -100 -70 0 -70 0 0 100 0 100 70 0
70 0 0 -100z"/>
<path d="M1040 1295 l0 -35 245 0 245 0 0 35 0 35 -245 0 -245 0 0 -35z"/>
<path d="M1040 1130 l0 -30 245 0 245 0 0 30 0 30 -245 0 -245 0 0 -30z"/>
<path d="M738 983 c-11 -43 -15 -43 398 -43 l394 0 0 30 0 30 -394 0 c-367 0
-394 -1 -398 -17z"/>
<path d="M1118 892 l-378 -2 0 -30 0 -30 396 0 395 0 -3 32 c-2 19 -9 32 -18
32 -8 1 -185 0 -392 -2z"/>
</g>
</svg>
