<?xml version="1.0" standalone="no"?>
<!DOCTYPE svg PUBLIC "-//W3C//DTD SVG 20010904//EN"
 "http://www.w3.org/TR/2001/REC-SVG-20010904/DTD/svg10.dtd">
<svg version="1.0" xmlns="http://www.w3.org/2000/svg"
 width="264.000000pt" height="239.000000pt" viewBox="0 0 264.000000 239.000000"
 preserveAspectRatio="xMidYMid meet">
<metadata>
Created by potrace 1.12, written by Peter Selinger 2001-2015
</metadata>
<g transform="translate(0.000000,239.000000) scale(0.100000,-0.100000)"
fill="#777" stroke="none">
<path d="M1875 1963 c-44 -24 -199 -111 -345 -193 -146 -81 -400 -223 -565
-315 -165 -92 -365 -204 -445 -248 -80 -44 -154 -86 -165 -94 -17 -11 107 -13
793 -11 l812 3 0 449 c0 247 -1 450 -2 452 -2 1 -39 -18 -83 -43z m25 -428 l0
-365 -552 0 c-465 0 -549 2 -533 13 17 13 17 16 -6 56 -20 35 -21 44 -9 51 10
6 19 2 30 -15 21 -31 48 -19 31 14 -12 22 -7 41 9 41 5 0 15 -11 22 -25 10
-17 17 -22 27 -15 12 7 13 14 3 34 -16 35 5 46 29 15 13 -18 21 -21 29 -13 9
9 9 17 1 32 -14 26 -14 32 2 32 6 0 22 -18 35 -40 20 -36 24 -39 47 -28 l24
11 -20 39 c-11 22 -17 47 -14 56 6 15 10 13 28 -10 15 -18 26 -24 36 -19 11 7
10 13 -3 34 -16 23 -16 25 0 31 16 6 28 -3 37 -28 2 -5 11 -7 21 -3 13 5 15
11 6 26 -14 27 -13 41 4 41 8 0 18 -9 21 -20 6 -19 25 -26 38 -14 3 3 1 17 -5
30 -7 16 -8 28 -2 34 6 6 19 -7 34 -35 27 -50 28 -51 55 -31 19 14 19 15 -4
56 -18 32 -21 44 -11 53 9 9 15 7 27 -10 28 -41 56 -25 33 18 -9 15 -7 21 6
26 10 4 19 2 21 -3 9 -26 22 -36 38 -30 16 6 16 8 0 32 -14 22 -15 28 -4 35
13 8 33 -8 41 -33 2 -5 11 -6 20 -3 16 6 16 10 3 35 -10 20 -12 31 -4 35 13 8
12 10 38 -42 23 -47 28 -50 56 -29 18 13 17 15 -8 59 -23 43 -24 48 -9 56 13
8 22 4 38 -16 28 -35 50 -23 29 17 -13 25 -13 29 3 35 9 3 18 2 20 -3 8 -25
28 -41 41 -33 10 6 11 13 2 29 -15 28 -14 42 2 42 8 0 19 -11 25 -25 7 -16 17
-23 27 -19 18 7 18 9 4 35 -6 12 -8 28 -4 37 4 12 12 5 31 -28 33 -57 30 -55
59 -42 l24 11 -24 43 c-14 24 -25 46 -25 50 0 6 65 45 78 48 1 0 2 -164 2
-365z m-1140 -325 l20 -40 -54 0 c-41 0 -55 4 -60 17 -4 9 -1 21 5 27 7 7 13
7 15 1 11 -28 23 -37 39 -31 16 6 16 8 2 30 -15 23 -13 36 4 36 5 0 18 -18 29
-40z m-133 -36 c-3 -3 -12 -4 -19 -1 -8 3 -5 6 6 6 11 1 17 -2 13 -5z"/>
<path d="M1463 1491 l-262 -146 261 -3 c143 -1 263 -1 265 1 2 3 2 70 1 149
l-3 146 -262 -147z m207 -25 l0 -63 -105 0 c-58 0 -105 3 -105 7 0 5 197 119
208 120 1 0 2 -29 2 -64z"/>
<path d="M300 763 l0 -173 900 0 900 0 0 170 0 170 -900 2 -900 3 0 -172z m90
82 c0 -18 5 -25 20 -25 15 0 20 7 20 25 0 18 5 25 20 25 15 0 20 -7 20 -25 0
-18 5 -25 20 -25 15 0 20 7 20 25 0 16 6 25 15 25 11 0 15 -12 15 -49 0 -46 1
-49 30 -53 29 -4 29 -4 32 46 3 44 6 51 26 54 18 3 22 -1 22 -22 0 -19 5 -26
20 -26 15 0 20 7 20 25 0 18 5 25 20 25 15 0 20 -7 20 -25 0 -18 5 -25 20 -25
15 0 20 7 20 26 0 19 4 25 18 22 9 -2 17 -12 17 -23 0 -13 7 -20 20 -20 15 0
19 6 17 23 -3 17 2 22 17 22 18 0 21 -6 21 -50 0 -49 1 -50 30 -50 29 0 30 1
30 50 0 43 3 50 20 50 15 0 20 -7 20 -25 0 -18 5 -25 20 -25 15 0 20 7 20 25
0 18 5 25 20 25 15 0 20 -7 20 -25 0 -18 5 -25 20 -25 15 0 20 7 20 25 0 18 5
25 20 25 15 0 20 -7 20 -25 0 -18 5 -25 20 -25 15 0 20 7 20 25 0 16 6 25 15
25 11 0 15 -12 15 -50 l0 -50 35 0 35 0 0 50 c0 43 3 50 20 50 15 0 20 -7 20
-25 0 -18 5 -25 20 -25 15 0 20 7 20 25 0 18 5 25 20 25 15 0 20 -7 20 -25 0
-18 5 -25 20 -25 15 0 20 7 20 25 0 18 5 25 20 25 15 0 20 -7 20 -25 0 -18 5
-25 20 -25 15 0 20 7 20 25 0 16 6 25 15 25 11 0 15 -12 15 -50 0 -50 0 -50
33 -50 l32 0 -1 50 c-1 49 -1 50 27 50 24 0 29 -4 29 -25 0 -16 6 -25 15 -25
9 0 15 9 15 25 0 20 5 25 26 25 23 0 26 -3 22 -25 -4 -19 -1 -25 13 -25 14 0
19 7 19 25 0 20 5 25 26 25 23 0 26 -3 22 -25 -4 -19 -1 -25 13 -25 14 0 19 7
19 25 0 18 5 25 20 25 17 0 20 -7 20 -53 l0 -54 30 5 c29 4 30 6 30 54 l0 49
38 -3 37 -3 3 -97 c2 -88 1 -98 -17 -108 -14 -7 -276 -9 -838 -8 l-818 3 -3
108 c-2 91 0 107 13 107 9 0 15 -9 15 -25z"/>
</g>
</svg>
