<?xml version="1.0" standalone="no"?>
<!DOCTYPE svg PUBLIC "-//W3C//DTD SVG 20010904//EN"
 "http://www.w3.org/TR/2001/REC-SVG-20010904/DTD/svg10.dtd">
<svg version="1.0" xmlns="http://www.w3.org/2000/svg"
 width="237.000000pt" height="215.000000pt" viewBox="0 0 237.000000 215.000000"
 preserveAspectRatio="xMidYMid meet">
<metadata>
Created by potrace 1.12, written by Peter Selinger 2001-2015
</metadata>
<g transform="translate(0.000000,215.000000) scale(0.100000,-0.100000)"
fill="#000000" stroke="none">
<path d="M770 1691 c0 -57 -1 -59 -40 -85 -22 -14 -48 -26 -59 -26 -18 0 -19
-13 -25 -257 -3 -142 -8 -314 -11 -383 -3 -69 -5 -180 -6 -248 l-1 -123 466
-2 466 -2 0 28 c0 40 24 92 65 140 l36 41 -7 291 c-4 159 -8 304 -9 320 -2 17
-4 105 -4 198 l-1 167 -435 0 -435 0 0 -59z m722 -29 c-22 -18 -32 -36 -32
-54 0 -22 -5 -28 -23 -28 -13 0 -26 9 -32 22 -22 49 -68 49 -90 0 -9 -21 -15
-22 -182 -22 -146 0 -173 2 -173 15 0 8 -11 22 -25 31 -23 15 -27 15 -50 0
-14 -9 -25 -23 -25 -31 0 -8 -7 -15 -15 -15 -12 0 -15 13 -15 55 l0 55 348 0
347 -1 -33 -27z m87 -39 c-3 -23 10 -633 16 -739 4 -77 3 -82 -21 -105 l-25
-24 2 50 c4 118 -14 771 -22 779 -5 6 0 19 13 33 26 27 40 30 37 6z m-117
-368 c3 -132 8 -322 11 -422 l4 -183 -383 0 -384 0 6 298 c4 163 8 308 9 322
2 14 3 71 4 128 l1 102 363 -2 362 -3 7 -240z"/>
<path d="M825 1444 c-9 -10 -14 -24 -12 -33 3 -9 10 -29 16 -46 5 -16 15 -48
20 -71 27 -105 112 -164 235 -164 143 0 232 76 248 211 2 15 10 34 17 42 16
20 11 57 -10 70 -23 14 -67 0 -74 -24 -4 -11 0 -30 8 -43 19 -28 7 -94 -25
-139 -67 -94 -275 -87 -331 11 -30 51 -39 104 -21 123 18 20 18 44 -2 63 -20
21 -48 20 -69 0z"/>
</g>
</svg>
