<?xml version="1.0" standalone="no"?>
<!DOCTYPE svg PUBLIC "-//W3C//DTD SVG 20010904//EN"
 "http://www.w3.org/TR/2001/REC-SVG-20010904/DTD/svg10.dtd">
<svg version="1.0" xmlns="http://www.w3.org/2000/svg"
 width="216.000000pt" height="238.000000pt" viewBox="0 0 216.000000 238.000000"
 preserveAspectRatio="xMidYMid meet">
<metadata>
Created by potrace 1.12, written by Peter Selinger 2001-2015
</metadata>
<g transform="translate(0.000000,238.000000) scale(0.100000,-0.100000)"
fill="#000000" stroke="none">
<path d="M823 1771 c-117 -31 -215 -60 -218 -63 -7 -7 13 -88 21 -88 6 0 413
108 430 114 9 3 9 17 1 50 -6 25 -13 46 -16 45 -3 0 -102 -26 -218 -58z"/>
<path d="M1430 1680 c-190 -60 -353 -109 -362 -109 -12 -1 -20 13 -29 53 -6
30 -15 60 -19 67 -6 9 -47 1 -166 -31 -88 -23 -160 -43 -162 -45 -4 -3 125
-485 132 -492 4 -5 316 74 324 82 2 2 -6 37 -17 77 -12 41 -21 81 -21 89 0 12
88 35 377 100 l376 84 14 34 c31 75 -27 205 -89 200 -7 -1 -168 -50 -358 -109z
m378 15 c12 -26 17 -85 7 -85 -7 0 -667 -150 -686 -156 -12 -3 -19 3 -23 22
-4 14 -5 29 -2 31 6 6 666 212 682 212 6 1 16 -10 22 -24z m-775 -237 c27
-101 49 -191 50 -202 2 -16 -15 -23 -103 -47 -58 -16 -110 -29 -115 -29 -9 0
-104 337 -108 384 -2 16 14 23 98 47 55 15 107 28 115 28 11 1 27 -45 63 -181z"/>
<path d="M423 1263 l-32 -16 86 -81 c47 -45 94 -87 104 -93 9 -7 -13 37 -49
97 -37 60 -69 110 -72 109 -3 0 -19 -7 -37 -16z"/>
<path d="M976 1124 c-110 -30 -201 -56 -203 -58 -8 -8 18 -86 29 -86 9 0 429
110 435 114 1 1 -3 21 -9 44 -8 33 -15 42 -32 41 -11 0 -111 -25 -220 -55z"/>
<path d="M1478 1090 c-54 -50 -96 -90 -93 -90 6 0 248 120 254 126 7 6 -41 54
-53 54 -6 -1 -55 -41 -108 -90z"/>
<path d="M295 1124 c-9 -14 -15 -27 -13 -29 6 -6 202 -75 205 -72 3 4 -163
127 -171 127 -2 0 -11 -12 -21 -26z"/>
<path d="M580 860 l0 -60 -70 0 -70 0 0 -135 0 -135 569 0 570 0 3 125 c2 69
2 130 0 135 -2 6 -39 10 -83 10 l-79 0 0 60 0 60 -420 0 -420 0 0 -60z m780
-65 l0 -65 80 0 80 0 0 -70 0 -70 -507 2 -508 3 -3 68 -3 67 71 0 70 0 0 65 0
65 360 0 360 0 0 -65z"/>
</g>
</svg>
