<?xml version="1.0" standalone="no"?>
<!DOCTYPE svg PUBLIC "-//W3C//DTD SVG 20010904//EN"
 "http://www.w3.org/TR/2001/REC-SVG-20010904/DTD/svg10.dtd">
<svg version="1.0" xmlns="http://www.w3.org/2000/svg"
 width="240.000000pt" height="240.000000pt" viewBox="0 0 240.000000 240.000000"
 preserveAspectRatio="xMidYMid meet">
<metadata>
Created by potrace 1.12, written by Peter Selinger 2001-2015
</metadata>
<g transform="translate(0.000000,240.000000) scale(0.100000,-0.100000)"
fill="#777" stroke="none">
<path d="M934 1980 c-31 -12 -54 -49 -54 -88 0 -42 46 -92 85 -92 91 0 133
103 65 163 -31 28 -58 33 -96 17z"/>
<path d="M1031 1746 l-44 -45 -58 40 -59 40 -42 -22 c-109 -55 -155 -88 -173
-128 -16 -36 -21 -39 -46 -34 -24 5 -29 2 -35 -22 -6 -25 -9 -27 -50 -20 l-43
6 -11 -43 c-6 -24 -18 -67 -27 -96 -8 -30 -13 -55 -11 -56 13 -11 303 -75 308
-69 6 7 50 172 50 187 0 2 -14 7 -31 11 -29 6 -30 9 -25 40 5 27 3 33 -14 38
-21 5 -21 6 -4 32 9 14 43 40 75 56 l58 29 -5 -97 c-9 -149 -20 -234 -36 -273
-14 -32 -25 -39 -111 -74 l-97 -38 16 -36 c8 -20 16 -37 17 -38 1 -1 53 19
116 44 l115 47 26 79 c14 44 30 81 36 83 5 2 42 -27 82 -65 l72 -67 0 -98 0
-97 40 0 40 0 0 112 0 112 -64 66 -65 65 27 128 c15 70 29 127 32 127 3 0 16
-22 27 -50 l21 -50 86 0 86 0 0 35 0 34 -67 3 -67 3 -31 72 c-37 88 -52 92
-114 29z m-363 -206 c6 0 12 -4 12 -9 0 -6 -12 -6 -31 -1 -38 11 -55 26 -19
17 14 -4 31 -7 38 -7z m-27 -70 l86 -22 -12 -46 c-7 -26 -16 -46 -21 -46 -5 1
-51 12 -103 24 l-93 23 6 40 c8 51 14 59 34 53 10 -3 56 -15 103 -26z"/>
<path d="M1620 855 l0 -405 140 0 140 0 0 405 0 405 -140 0 -140 0 0 -405z
m208 -2 l2 -343 -75 0 -75 0 0 339 c0 262 3 341 13 345 6 2 39 4 72 3 l60 -2
3 -342z"/>
<path d="M1250 776 l0 -325 130 -3 c72 -2 135 -1 140 0 6 2 10 124 10 328 l0
324 -140 0 -140 0 0 -324z m210 -3 l0 -263 -75 0 -75 0 0 258 c0 142 3 262 7
266 4 4 38 6 75 5 l68 -2 0 -264z"/>
<path d="M880 692 c0 -131 2 -241 4 -243 2 -2 65 -3 140 -1 l136 3 0 240 0
239 -140 0 -140 0 0 -238z m220 -2 l0 -180 -79 0 -80 0 0 173 c-1 95 2 176 5
180 4 4 40 7 81 7 l73 0 0 -180z"/>
<path d="M510 628 l0 -183 140 3 140 3 0 180 0 179 -140 0 -140 0 0 -182z
m210 2 l0 -120 -75 0 -75 0 0 120 0 120 75 0 75 0 0 -120z"/>
</g>
</svg>
