<?xml version="1.0" standalone="no"?>
<!DOCTYPE svg PUBLIC "-//W3C//DTD SVG 20010904//EN"
 "http://www.w3.org/TR/2001/REC-SVG-20010904/DTD/svg10.dtd">
<svg version="1.0" xmlns="http://www.w3.org/2000/svg"
 width="243.000000pt" height="242.000000pt" viewBox="0 0 243.000000 242.000000"
 preserveAspectRatio="xMidYMid meet">
<metadata>
Created by potrace 1.12, written by Peter Selinger 2001-2015
</metadata>
<g transform="translate(0.000000,242.000000) scale(0.100000,-0.100000)"
fill="#777" stroke="none">
<path d="M1409 1869 c-19 -7 -25 -15 -22 -28 4 -15 -13 -24 -101 -55 -58 -21
-109 -35 -115 -32 -5 3 -125 -34 -266 -84 -142 -49 -273 -90 -291 -90 l-34 0
-2 -401 c-2 -232 1 -403 6 -407 5 -3 28 -6 50 -6 40 -1 41 -2 44 -38 3 -38 4
-38 47 -38 43 0 44 0 47 38 l3 37 415 0 415 0 3 -37 c3 -38 4 -38 47 -38 43 0
44 0 47 38 3 40 -2 37 86 41 l32 1 0 405 0 405 -447 2 -447 3 129 45 c76 27
130 51 132 60 2 9 48 31 110 52 94 33 107 36 117 22 10 -13 16 -14 41 -3 17 7
32 14 34 16 8 5 -34 103 -43 102 -6 0 -23 -5 -37 -10z m331 -694 l0 -335 -545
0 -545 0 0 335 0 335 545 0 545 0 0 -335z"/>
<path d="M748 1442 l-28 -3 0 -115 0 -114 485 0 485 0 0 115 c0 113 0 115 -22
115 -13 0 -219 1 -458 3 -239 1 -447 1 -462 -1z m902 -117 l0 -75 -355 0 -355
0 0 60 c0 57 -1 60 -25 60 -24 0 -25 -3 -25 -60 l0 -60 -65 0 -65 0 0 75 0 75
445 0 445 0 0 -75z"/>
<path d="M1108 1320 c-2 -22 0 -40 4 -40 5 0 8 18 8 40 0 22 -2 40 -4 40 -2 0
-6 -18 -8 -40z"/>
<path d="M831 1313 c0 -29 2 -33 8 -18 7 18 4 55 -5 55 -2 0 -4 -17 -3 -37z"/>
<path d="M978 1332 c-3 -9 -1 -26 3 -37 6 -15 8 -11 8 18 1 40 -4 48 -11 19z"/>
<path d="M1250 1315 c0 -19 2 -35 4 -35 2 0 6 16 8 35 2 19 0 35 -4 35 -4 0
-8 -16 -8 -35z"/>
<path d="M1403 1315 c0 -22 2 -30 4 -17 2 12 2 30 0 40 -3 9 -5 -1 -4 -23z"/>
<path d="M1540 1315 c0 -19 4 -35 8 -35 4 0 6 16 4 35 -2 19 -6 35 -8 35 -2 0
-4 -16 -4 -35z"/>
<path d="M1142 1124 c3 -13 36 -15 258 -15 224 0 255 1 258 15 3 14 -25 16
-258 16 -231 0 -261 -2 -258 -16z"/>
<path d="M838 1113 c-57 -36 -67 -108 -22 -162 22 -27 32 -31 75 -31 39 0 55
5 74 24 50 50 43 125 -14 163 -40 27 -76 29 -113 6z m86 -59 c21 -21 20 -47
-3 -68 -41 -37 -97 14 -66 60 18 28 46 31 69 8z"/>
<path d="M1140 1060 c0 -19 7 -20 260 -20 253 0 260 1 260 20 0 19 -7 20 -260
20 -253 0 -260 -1 -260 -20z"/>
<path d="M1140 1000 c0 -19 7 -20 260 -20 253 0 260 1 260 20 0 19 -7 20 -260
20 -253 0 -260 -1 -260 -20z"/>
<path d="M1140 940 c0 -19 7 -20 260 -20 253 0 260 1 260 20 0 19 -7 20 -260
20 -253 0 -260 -1 -260 -20z"/>
</g>
</svg>
