<?xml version="1.0" standalone="no"?>
<!DOCTYPE svg PUBLIC "-//W3C//DTD SVG 20010904//EN"
 "http://www.w3.org/TR/2001/REC-SVG-20010904/DTD/svg10.dtd">
<svg version="1.0" xmlns="http://www.w3.org/2000/svg"
 width="277.000000pt" height="219.000000pt" viewBox="0 0 277.000000 219.000000"
 preserveAspectRatio="xMidYMid meet">
<metadata>
Created by potrace 1.12, written by Peter Selinger 2001-2015
</metadata>
<g transform="translate(0.000000,219.000000) scale(0.100000,-0.100000)"
fill="#000000" stroke="none">
<path d="M892 1608 c-185 -330 -232 -415 -232 -425 0 -5 11 -15 25 -21 l25
-12 0 -260 0 -260 608 -1 c334 -1 616 -2 627 -2 59 -1 55 -18 55 232 l0 230
51 3 50 3 -157 318 -158 317 -412 0 -413 0 -69 -122z m941 -188 c59 -121 107
-222 107 -225 0 -3 -147 -5 -328 -5 l-327 0 -108 215 c-59 118 -107 220 -107
225 0 6 117 10 328 10 l329 0 106 -220z m-685 -448 l3 -282 -188 2 -188 3 -3
250 -2 250 107 193 107 192 80 -162 81 -163 3 -283z m428 118 l354 0 0 -200 0
-200 -215 0 -215 0 0 185 0 185 -105 0 -105 0 0 -185 0 -185 -40 0 -40 0 1
213 c0 116 3 206 6 200 4 -10 85 -13 359 -13z m-126 -240 l0 -160 -55 0 -55 0
0 160 0 160 55 0 55 0 0 -160z"/>
<path d="M1167 1581 c-14 -23 -13 -30 16 -87 17 -34 41 -68 54 -75 17 -9 21
-18 17 -34 -8 -32 33 -122 66 -145 24 -17 45 -20 133 -20 86 0 106 3 111 16 5
14 8 14 28 0 17 -12 48 -16 125 -16 101 0 103 0 117 27 13 25 12 32 -14 84
-16 31 -40 63 -54 73 -20 13 -25 22 -20 40 7 29 -36 118 -68 140 -33 23 -233
23 -242 0 -5 -14 -9 -14 -23 -3 -10 9 -54 16 -124 19 -106 5 -108 5 -122 -19z
m206 -33 c20 -10 57 -66 57 -85 0 -9 -22 -13 -78 -13 -63 0 -82 4 -94 18 -16
17 -48 76 -48 87 0 10 143 3 163 -7z m267 2 c17 -9 60 -77 60 -95 0 -7 -145
-6 -165 1 -15 6 -55 73 -55 92 0 13 137 15 160 2z m-131 -134 c13 -7 19 -16
13 -20 -5 -3 -21 3 -33 14 -27 22 -16 26 20 6z m-14 -83 c39 -58 35 -63 -49
-63 -41 0 -82 3 -91 6 -13 6 -55 72 -55 89 0 3 38 5 85 5 l84 0 26 -37z m240
31 c14 -6 55 -72 55 -89 0 -3 -39 -4 -87 -3 l-87 3 -23 40 c-12 22 -23 43 -23
48 0 9 142 10 165 1z"/>
<path d="M900 950 l0 -110 65 0 65 0 0 110 0 110 -65 0 -65 0 0 -110z"/>
</g>
</svg>
