<?xml version="1.0" standalone="no"?>
<!DOCTYPE svg PUBLIC "-//W3C//DTD SVG 20010904//EN"
 "http://www.w3.org/TR/2001/REC-SVG-20010904/DTD/svg10.dtd">
<svg version="1.0" xmlns="http://www.w3.org/2000/svg"
 width="280.000000pt" height="241.000000pt" viewBox="0 0 280.000000 241.000000"
 preserveAspectRatio="xMidYMid meet">
<metadata>
Created by potrace 1.12, written by Peter Selinger 2001-2015
</metadata>
<g transform="translate(0.000000,241.000000) scale(0.100000,-0.100000)"
fill="#000000" stroke="none">
<path d="M1175 1706 c-90 -28 -85 -18 -85 -190 0 -182 12 -233 70 -299 59 -66
114 -90 199 -85 82 4 150 41 192 103 42 62 49 100 49 281 l0 169 -59 -3 c-34
-2 -101 5 -159 17 -114 24 -150 25 -207 7z m195 -70 c30 -7 55 -17 55 -22 0
-5 -9 -31 -19 -57 l-19 -49 -61 7 c-83 8 -166 25 -167 33 -9 45 -4 78 15 89
27 16 126 16 196 -1z m133 -22 c35 -6 37 -8 37 -45 0 -34 -3 -38 -31 -44 -17
-4 -32 -5 -35 -3 -2 3 -10 26 -18 51 -15 51 -16 51 47 41z m-100 -156 l137 3
0 -54 c0 -176 -184 -277 -311 -170 -45 39 -70 96 -74 170 l-2 65 56 -9 c31 -4
118 -7 194 -5z"/>
<path d="M689 1576 c-133 -47 -189 -148 -189 -342 l0 -91 38 -7 c20 -3 53 -6
74 -6 26 0 47 -9 77 -34 68 -57 121 -55 191 9 19 17 41 24 91 28 37 2 72 8 79
12 21 13 7 208 -19 277 -49 129 -209 202 -342 154z m164 -47 c21 -5 54 -24 74
-42 53 -47 75 -105 81 -214 l5 -93 -42 0 c-36 0 -42 3 -37 18 30 99 23 132
-27 132 -53 1 -89 22 -103 60 l-12 35 -13 -32 c-15 -38 -47 -54 -113 -59 -27
-2 -53 -7 -58 -12 -8 -8 3 -87 17 -124 6 -15 1 -18 -35 -18 l-42 0 4 94 c3 80
8 103 33 152 25 49 39 63 84 86 58 30 117 36 184 17z m16 -241 c39 -3 40 -23
6 -95 -26 -58 -76 -97 -110 -87 -32 9 -83 69 -96 112 -16 54 -7 72 33 72 18 1
44 7 58 14 21 12 29 12 51 0 15 -7 41 -15 58 -16z"/>
<path d="M1844 1574 c-55 -20 -111 -75 -140 -138 -35 -78 -54 -251 -38 -347
l6 -36 91 23 c51 13 93 28 95 33 2 7 15 5 34 -5 57 -30 135 1 177 69 27 43 54
152 47 183 -5 19 -13 24 -37 24 -23 0 -34 7 -47 30 -20 35 -57 41 -67 10 -6
-18 -15 -20 -90 -20 -76 0 -85 -2 -96 -22 -17 -31 -4 -114 29 -179 l27 -57
-48 -11 c-84 -19 -80 -24 -74 92 6 130 27 197 77 251 44 47 91 66 165 66 74 0
121 -19 165 -66 50 -54 70 -120 77 -253 l6 -104 -36 6 c-21 4 -52 10 -71 13
-26 5 -34 2 -40 -11 -3 -10 -4 -20 -2 -22 2 -3 45 -15 95 -28 l90 -23 7 65
c19 178 -31 354 -120 424 -60 47 -197 63 -282 33z m192 -234 c35 0 35 0 28
-37 -15 -86 -73 -163 -122 -163 -48 0 -107 82 -118 165 l-7 44 89 3 c49 2 91
0 92 -4 2 -5 19 -8 38 -8z"/>
<path d="M1133 1070 c-134 -67 -201 -186 -219 -392 l-7 -78 457 0 456 0 0 43
c-1 72 -27 192 -55 256 -33 73 -103 142 -181 178 -61 28 -84 25 -84 -10 0 -19
11 -28 52 -47 78 -35 140 -102 167 -180 12 -36 24 -91 28 -122 l6 -58 -388 0
-388 0 6 58 c4 31 16 86 28 122 27 78 89 145 167 180 46 21 53 27 50 49 -4 36
-24 36 -95 1z"/>
<path d="M643 1029 c-39 -8 -93 -37 -125 -67 -35 -32 -68 -119 -68 -177 l0
-45 203 -1 c111 0 212 -2 225 -3 12 -2 23 3 23 11 5 51 19 48 -193 51 l-196 2
10 38 c15 54 42 88 91 111 38 19 62 21 201 21 l157 0 -3 32 -3 33 -147 0 c-80
0 -159 -3 -175 -6z"/>
<path d="M1845 1035 c-5 -2 -29 -9 -53 -15 -39 -10 -43 -14 -40 -38 3 -25 6
-27 48 -24 30 2 48 -2 55 -11 6 -8 28 -33 49 -57 l38 -42 62 60 61 61 35 -15
c58 -25 88 -62 104 -126 l6 -28 -195 0 -195 0 0 -30 0 -30 220 0 c121 0 223 0
228 -1 12 -1 3 92 -13 142 -17 51 -61 97 -120 127 -77 38 -86 36 -140 -17
l-48 -49 -46 48 c-25 27 -50 47 -56 45z"/>
</g>
</svg>
