<?xml version="1.0" standalone="no"?>
<!DOCTYPE svg PUBLIC "-//W3C//DTD SVG 20010904//EN"
 "http://www.w3.org/TR/2001/REC-SVG-20010904/DTD/svg10.dtd">
<svg version="1.0" xmlns="http://www.w3.org/2000/svg"
 width="212.000000pt" height="227.000000pt" viewBox="0 0 212.000000 227.000000"
 preserveAspectRatio="xMidYMid meet">
<metadata>
Created by potrace 1.12, written by Peter Selinger 2001-2015
</metadata>
<g transform="translate(0.000000,227.000000) scale(0.100000,-0.100000)"
fill="#777" stroke="none">
<path d="M680 1850 c0 -64 3 -80 15 -80 13 0 15 -29 15 -200 l0 -200 -140
-273 c-118 -230 -140 -281 -140 -318 0 -53 27 -101 72 -129 32 -20 46 -20 398
-15 201 2 440 8 531 12 l166 8 25 30 c81 97 111 251 74 379 -32 108 -130 217
-238 264 -28 11 -28 13 -28 102 0 73 3 90 15 90 12 0 15 14 15 65 l0 65 -160
0 -160 0 0 -65 c0 -51 3 -65 15 -65 12 0 15 -17 15 -90 l0 -89 -31 -16 c-17
-9 -32 -15 -34 -13 -1 2 -10 17 -19 35 -23 46 -24 423 -1 423 12 0 15 16 15
80 l0 80 -210 0 -210 0 0 -80z m290 -257 c0 -246 0 -246 25 -289 l26 -44 -42
-52 c-23 -29 -46 -65 -51 -80 l-10 -28 -114 0 c-63 0 -114 2 -114 5 0 3 27 59
60 125 l60 120 0 245 0 245 80 0 80 0 0 -247z m396 -21 c1 -6 2 -75 3 -152 1
-110 4 -140 14 -140 30 0 138 -63 172 -101 38 -43 85 -131 85 -161 0 -17 -15
-18 -187 -18 l-188 0 -62 120 c-35 65 -63 123 -63 129 0 5 23 15 50 22 l50 13
0 152 0 152 63 -1 c41 -1 62 -6 63 -15z m-297 -470 c-16 -2 -41 -2 -55 0 l-26
3 33 44 32 45 22 -45 23 -44 -29 -3z m-181 -154 c0 -83 6 -110 36 -180 l16
-38 -193 0 c-205 0 -217 3 -217 48 0 20 88 207 113 240 7 8 45 12 127 12 l118
0 0 -82z m260 65 c3 -10 -20 -13 -92 -13 -80 0 -96 3 -96 15 0 13 15 15 92 13
62 -2 93 -7 96 -15z m74 -147 c66 -120 55 -136 -93 -136 l-107 0 -21 35 c-26
45 -54 141 -47 161 5 12 25 15 118 12 l113 -3 37 -69z m420 29 c-4 -44 -30
-110 -62 -155 -21 -30 -22 -30 -125 -30 l-104 0 6 53 c4 45 1 60 -25 109 -20
38 -26 58 -19 61 7 3 84 4 172 3 l160 -1 -3 -40z"/>
</g>
</svg>
