<?xml version="1.0" standalone="no"?>
<!DOCTYPE svg PUBLIC "-//W3C//DTD SVG 20010904//EN"
 "http://www.w3.org/TR/2001/REC-SVG-20010904/DTD/svg10.dtd">
<svg version="1.0" xmlns="http://www.w3.org/2000/svg"
 width="223.000000pt" height="199.000000pt" viewBox="0 0 223.000000 199.000000"
 preserveAspectRatio="xMidYMid meet">
<metadata>
Created by potrace 1.12, written by Peter Selinger 2001-2015
</metadata>
<g transform="translate(0.000000,199.000000) scale(0.100000,-0.100000)"
fill="#000000" stroke="none">
<path d="M625 1651 c-146 -36 -178 -242 -51 -321 83 -51 191 -28 244 53 53 79
28 197 -51 245 -38 23 -100 33 -142 23z m104 -59 c38 -20 71 -73 71 -112 0
-62 -68 -130 -130 -130 -61 0 -130 68 -130 128 0 34 28 88 54 105 45 30 90 33
135 9z"/>
<path d="M1583 1602 c-34 -3 -42 -7 -45 -25 -3 -22 -6 -22 -153 -22 -150 0
-150 0 -147 23 3 20 -1 22 -47 22 -44 0 -50 -3 -53 -22 -3 -21 -10 -24 -71
-28 l-68 -5 -2 -199 c-2 -193 -3 -199 -23 -207 -20 -7 -25 0 -54 77 l-32 84
-68 0 -69 0 -33 -60 c-18 -33 -36 -60 -40 -60 -4 0 -22 27 -40 60 l-33 61 -70
-3 -69 -3 -72 -190 c-39 -104 -70 -192 -68 -195 4 -8 95 -53 98 -49 2 2 20 36
40 74 l37 70 -5 -145 c-3 -80 -8 -161 -11 -180 -6 -42 -25 -201 -25 -212 0 -7
169 -12 171 -5 0 1 8 75 18 165 25 218 33 228 51 57 6 -61 13 -121 15 -135 2
-14 4 -40 4 -57 l1 -33 90 0 c89 0 90 0 85 23 -25 114 -54 527 -36 527 3 0 15
-16 26 -35 l20 -34 42 19 c23 10 44 16 47 12 3 -3 6 -27 6 -54 l0 -48 59 0 59
0 -4 -32 c-1 -18 -5 -102 -8 -185 l-5 -153 49 0 50 0 1 98 c0 53 2 108 3 122
1 14 3 53 4 88 l2 62 180 0 180 0 0 -57 c0 -75 11 -295 15 -308 1 -6 22 -9 47
-7 l44 4 -3 71 c-1 40 -4 123 -7 185 l-4 112 69 0 69 0 0 343 0 342 -80 -2
c-78 -2 -80 -2 -80 22 0 29 -4 31 -57 27z m157 -387 l0 -275 -340 0 -340 0 0
34 c0 31 4 35 49 54 46 19 50 23 53 58 l3 37 120 43 c115 40 120 43 118 69 -1
15 -4 30 -7 32 -3 3 -56 -13 -118 -35 -62 -22 -130 -43 -151 -47 -21 -3 -45
-9 -53 -12 -12 -4 -14 20 -14 156 l0 161 340 0 340 0 0 -275z m-1114 -50 c29
-53 51 -82 57 -76 5 5 28 42 51 83 40 70 43 73 82 76 l40 3 27 -78 c15 -43 31
-84 35 -91 6 -9 29 -5 97 18 49 16 90 30 93 30 2 0 2 -12 0 -26 -3 -22 -15
-31 -88 -60 -47 -19 -90 -32 -96 -30 -7 3 -25 27 -41 55 -28 51 -37 57 -60 43
-18 -12 -17 -289 1 -447 20 -167 22 -155 -19 -155 -31 0 -35 3 -39 33 -7 38
-25 208 -28 256 -3 40 -30 57 -80 47 l-34 -6 -13 -123 c-22 -220 -18 -207 -57
-207 -32 0 -34 2 -34 33 0 17 7 86 15 152 8 65 15 185 15 266 0 149 -2 159
-39 159 -4 0 -29 -43 -56 -95 -55 -104 -89 -131 -54 -42 12 28 36 93 54 142
18 50 36 98 40 108 5 12 18 17 45 17 37 0 39 -2 86 -85z"/>
</g>
</svg>
