<?xml version="1.0" encoding="utf-8"?>
<!-- Generator: Adobe Illustrator 18.1.0, SVG Export Plug-In . SVG Version: 6.00 Build 0)  -->
<!DOCTYPE svg PUBLIC "-//W3C//DTD SVG 1.1//EN" "http://www.w3.org/Graphics/SVG/1.1/DTD/svg11.dtd">
<svg version="1.1" id="Layer_1" xmlns="http://www.w3.org/2000/svg" xmlns:xlink="http://www.w3.org/1999/xlink" x="0px" y="0px"
	 viewBox="0 0 200 200" enable-background="new 0 0 200 200" xml:space="preserve">
<g>
	<path fill="#FFFFFF" d="M19.5,153.1c0-43.5,0-86.9,0-130.4c53.8,0,107.5,0,161.3,0c0,43.5,0,87,0,130.4
		C127.1,153.1,73.3,153.1,19.5,153.1z M32.4,90.5c0,0.3,0,0.5,0,0.7c0,16.2,0,32.3,0,48.5c0,2.1,1.1,3.2,3.2,3.2
		c42.9,0,85.8,0,128.6,0c2.1,0,3.2-1.1,3.2-3.2c0-16.2,0-32.3,0-48.5c0-0.2,0-0.5,0-0.9c-0.6,0.6-1.1,1.1-1.6,1.6
		c-4.1,3.9-9.1,6-14.7,6c-34.1,0-68.3,0-102.4,0c-4.8,0-9.1-1.5-13-4.4C34.7,92.6,33.6,91.5,32.4,90.5z M71.6,47.2
		c-0.2,0-0.5,0-0.8,0c-11.7,0-23.3,0-35,0c-2.3,0-3.4,1.5-3.4,3.4c0.1,8.3,0,16.6,0,24.8c0,1.2,0.1,2.5,0.4,3.6
		c1.8,8,8.3,13.2,16.6,13.2c33.7,0,67.5,0,101.2,0c1,0,1.9-0.1,2.9-0.2c7.6-1.1,13.8-7.8,13.9-15.5c0.1-8.9,0-17.7,0-26.6
		c0-1.1-0.5-2-1.5-2.4c-0.6-0.3-1.3-0.4-2-0.4c-11.6,0-23.3,0-34.9,0c-0.3,0-0.6,0-1,0c-0.1-1.1-0.2-2.1-0.4-3.1
		c-1.7-8.3-8.5-13.7-16.9-13.7c-7.4,0-14.8,0-22.2,0c-7.3,0-13.8,4.7-16,11.7C72.2,43.6,72,45.4,71.6,47.2z"/>
	<g>
		<path fill="#4F4F4F" d="M32.4,138.9c0,2.2,1.8,4,4,4h127.1c2.2,0,4-1.8,4-4V98.2c0-2.2-1.8-4-4-4H36.4c-2.2,0-4,1.8-4,4V138.9z"/>
	</g>
	<path fill="#4F4F4F" d="M71.6,47.2c0.4-1.8,0.6-3.6,1.1-5.2c2.2-7,8.7-11.7,16-11.7c7.4,0,14.8,0,22.2,0c8.4,0,15.2,5.5,16.9,13.7
		c0.2,1,0.3,2,0.4,3.1c0.3,0,0.6,0,1,0c11.6,0,23.3,0,34.9,0c0.7,0,1.4,0.1,2,0.4c1,0.4,1.5,1.3,1.5,2.4c0,5.5,0,11,0,16.6
		c0,3.3,0,6.7-0.1,10c-0.1,7.6-6.3,14.4-13.9,15.5c-1,0.1-1.9,0.2-2.9,0.2c-33.7,0-67.5,0-101.2,0c-8.2,0-14.8-5.2-16.6-13.2
		c-0.3-1.2-0.4-2.4-0.4-3.6c0-8.3,0-16.6,0-24.8c0-1.9,1.1-3.4,3.4-3.4c11.7,0,23.3,0,35,0C71.1,47.2,71.4,47.2,71.6,47.2z
		 M122.5,47.2c0-0.2,0-0.3,0-0.4c-0.2-6-5.2-10.7-11.3-10.7c-7.4,0-14.9,0-22.3,0c-3.9,0-7.1,1.6-9.4,4.8c-1.3,1.9-2,4-2,6.3
		C92.5,47.2,107.5,47.2,122.5,47.2z"/>
	<path fill="#FFFFFF" d="M122.5,47.2c-15,0-30,0-45,0c0-2.4,0.7-4.5,2-6.3c2.3-3.2,5.5-4.8,9.4-4.8c7.4,0,14.9,0,22.3,0
		c6.1,0,11.1,4.8,11.3,10.7C122.5,46.9,122.5,47,122.5,47.2z"/>
</g>
<g>
	<path fill="#4F4F4F" d="M32.4,90.3c0,1.1,0.9,2,2,2h12.8c1.1,0,2-0.9,2-2V77.5c0-1.1-0.9-2-2-2H34.4c-1.1,0-2,0.9-2,2V90.3z"/>
</g>
<g>
	<path fill="#4F4F4F" d="M146.7,90.3c0,1.1,0.9,2,2,2h16.9c1.1,0,2-0.9,2-2V75.5c0-1.1-0.9-2-2-2h-16.9c-1.1,0-2,0.9-2,2V90.3z"/>
</g>
<path fill="#4F4F4F" d="M32.4,91.2"/>
<g id="Layer_2">
	<path fill="#FFFFFF" d="M160.3,86.5H40.4c-1.1,0-2-0.9-2-2V54.4c0-1.1,0.9-2,2-2h119.9c1.1,0,2,0.9,2,2v30.1
		C162.3,85.6,161.4,86.5,160.3,86.5z"/>
	<path fill="#FFFFFF" d="M157.3,137.5H43.4c-2.8,0-5-2.2-5-5v-28c0-2.8,2.2-5,5-5h113.9c2.8,0,5,2.2,5,5v28
		C162.3,135.2,160,137.5,157.3,137.5z"/>
</g>
<path fill="#4F4F4F" d="M109.3,82.1H91.1c-2,0-3.7-1.7-3.7-3.7v-4.5c0-2,1.7-3.7,3.7-3.7h18.1c2,0,3.7,1.7,3.7,3.7v4.5
	C113,80.4,111.3,82.1,109.3,82.1z"/>
<path fill="#FFFFFF" d="M105,79h-9.5c-1.1,0-2-0.9-2-2v-1.6c0-1.1,0.9-2,2-2h9.5c1.1,0,2,0.9,2,2V77C107,78.1,106.1,79,105,79z"/>
</svg>
