<?xml version="1.0" encoding="utf-8"?>
<!-- Generator: Adobe Illustrator 18.1.0, SVG Export Plug-In . SVG Version: 6.00 Build 0)  -->
<!DOCTYPE svg PUBLIC "-//W3C//DTD SVG 1.1//EN" "http://www.w3.org/Graphics/SVG/1.1/DTD/svg11.dtd">
<svg version="1.1" id="Layer_1" xmlns="http://www.w3.org/2000/svg" xmlns:xlink="http://www.w3.org/1999/xlink" x="0px" y="0px"
	 viewBox="0 0 200 200" enable-background="new 0 0 200 200" xml:space="preserve">
<path fill="#4F4F4F" d="M79.7,51.9c0-0.4,0-0.7,0-1c0-3.8,0-7.7,0-11.5c0-2.4,0.6-4.7,2.4-6.5c1.6-1.5,3.5-2.3,5.7-2.4
	c8.9,0,17.9,0,26.8,0c4.1,0,7.6,3.1,7.9,7.2c0.2,3.9,0.1,7.9,0.2,11.9c0,0.8,0,1.5,0,2.4c0.4,0,0.8,0,1.2,0c15.9,0,31.9,0,47.8,0
	c1.6,0,3.2,0.4,4.6,1.2c2.3,1.4,3.3,3.5,3.5,6.2c0,0.4,0,0.8,0,1.1c0,32.4,0,64.9,0,97.3c0,5.4-3,8.4-8.4,8.4c-26.8,0-53.6,0-80.4,0
	c-20,0-39.9,0-59.9,0c-2.3,0-4.4-0.6-6.2-2.2c-1.5-1.4-2.1-3.1-2.2-5.1c0-0.4,0-0.8,0-1.1c0-32.5,0-64.9,0-97.4
	c0-2.4,0.5-4.6,2.3-6.3c1.6-1.5,3.6-2.1,5.7-2.1c15.9,0,31.8,0,47.6,0C78.7,51.9,79.1,51.9,79.7,51.9z M29.6,101.9
	c0,19.2,0,38.4,0,57.6c47.8,0,95.5,0,143.2,0c0-19.2,0-38.4,0-57.5c-20.4,0-40.7,0-61.1,0c0,2.4,0,4.8,0,7.1c-7.2,0-14.2,0-21.4,0
	c0-2.4,0-4.7,0-7.1C70.1,101.9,49.9,101.9,29.6,101.9z M172.5,59.1c-47.6,0-95.1,0-142.7,0c0,11.9,0,23.7,0,35.5
	c20.2,0,40.4,0,60.7,0c0-2.4,0-4.7,0-7c7.1,0,14.2,0,21.4,0c0,2.4,0,4.7,0,7c20.3,0,40.5,0,60.7,0C172.5,82.8,172.5,71,172.5,59.1z
	 M87,51.9c9.6,0,19.2,0,28.7,0c0-4.8,0-9.6,0-14.3c-9.6,0-19.2,0-28.7,0C87,42.3,87,47.1,87,51.9z"/>
<g>
	<g>
		<rect x="95.8" y="94.7" fill="#FFFFFF" width="11" height="7.2"/>
	</g>
</g>
</svg>
