<?xml version="1.0" encoding="utf-8"?>
<!-- Generator: Adobe Illustrator 18.1.0, SVG Export Plug-In . SVG Version: 6.00 Build 0)  -->
<!DOCTYPE svg PUBLIC "-//W3C//DTD SVG 1.1//EN" "http://www.w3.org/Graphics/SVG/1.1/DTD/svg11.dtd">
<svg version="1.1" id="Layer_1" xmlns="http://www.w3.org/2000/svg" xmlns:xlink="http://www.w3.org/1999/xlink" x="0px" y="0px"
	 viewBox="0 0 200 200" enable-background="new 0 0 200 200" xml:space="preserve">
<g>
	<path opacity="0" fill="#FFFFFF" d="M-5.9,173.6c0-47.6,0-95.1,0-142.7c69.3,0,138.6,0,207.9,0c0,47.6,0,95.1,0,142.7
		C132.7,173.6,63.4,173.6-5.9,173.6z M100,159.6c27,0,54.1,0,81.1,0c0.3,0,0.6,0,1,0c1.9-0.1,3.7-1.3,4-3.2c0.4-2,0.4-3.9-0.8-5.8
		c-4.2-6.2-8.3-12.5-12.5-18.7c-0.5-0.7-0.7-1.4-0.7-2.2c0-28.6,0-57.2,0-85.8c0-3.4-2.1-5.2-5.2-5.2c-44.6,0.1-89.2,0-133.8,0
		c-0.3,0-0.6,0-0.9,0c-1.8,0-3.4,1.1-4,2.8c-0.3,0.8-0.4,1.6-0.4,2.4c0,28.6,0,57.2,0,85.8c0,0.8-0.2,1.5-0.7,2.1
		c-4.2,6.2-8.3,12.5-12.5,18.7c-1.2,1.8-1.2,3.7-0.9,5.6c0.4,2.2,2.1,3.4,4.6,3.4C45.7,159.6,72.8,159.6,100,159.6z"/>
	<g>
		<g>
			<path fill="#4F4F4F" d="M185.2,150.7c-4.2-6.2-8.3-12.5-12.5-18.7c-0.5-0.7-0.7-1.4-0.7-2.2c0-28.6,0-57.2,0-85.8
				c0-3.4-2.1-5.2-5.2-5.2c-44.6,0.1-89.2,0-133.8,0c-0.3,0-0.6,0-0.9,0c-1.8,0-3.4,1.1-4,2.8c-0.3,0.8-0.4,1.6-0.4,2.4
				c0,28.6,0,57.2,0,85.8c0,0.8-0.2,1.5-0.7,2.1c-4.2,6.2-8.3,12.5-12.5,18.7c-1.2,1.8-1.2,3.7-0.9,5.6c0.4,2.2,2.1,3.4,4.6,3.4
				c27.2,0,54.3,0,81.5,0c27,0,54.1,0,81.1,0c0.3,0,0.6,0,1,0c1.9-0.1,3.7-1.3,4-3.2C186.5,154.5,186.5,152.5,185.2,150.7z
				 M36.6,47.5c42.3,0,84.5,0,126.7,0c0,26.8,0,53.5,0,80.4c-42.2,0-84.4,0-126.7,0C36.6,101.1,36.6,74.3,36.6,47.5z M25.1,151
				c0.2-0.3,0.3-0.5,0.4-0.8c2.8-4.3,5.7-8.5,8.5-12.8c0.4-0.6,0.8-0.8,1.5-0.8c43,0,86,0,129,0c0.4,0,1,0.2,1.2,0.5
				c3,4.5,6,9,9,13.4c0.1,0.1,0.1,0.2,0.2,0.4C124.9,151,75,151,25.1,151z"/>
		</g>
	</g>
</g>
<g>
	<path opacity="0" fill="#FFFFFF" d="M35.5,127.9c0-26.8,0-53.5,0-80.3c43,0,86,0,129.1,0c0,26.7,0,53.5,0,80.3
		C121.5,127.9,78.5,127.9,35.5,127.9z M80.9,112.2c0.2,2.4,1.8,4.1,4.1,4.4c2.1,0.3,3.7-0.7,4.8-2.9c6.5-13,13-26,19.5-39
		c2.3-4.7,4.7-9.4,7-14.1c0.9-1.8,0.9-3.6-0.5-5.1c-2.3-2.7-6-2-7.7,1.3c-8.8,17.7-17.7,35.3-26.5,53
		C81.3,110.6,81.2,111.4,80.9,112.2z M61.5,84.6c0.5-0.3,0.8-0.6,1.2-0.9c4.7-4.7,9.4-9.4,14.1-14.1c1.3-1.3,2-2.8,1.6-4.6
		c-0.4-1.7-1.5-2.9-3.3-3.3c-1.7-0.5-3.2,0.1-4.5,1.3c-6,6-12.1,12.1-18.1,18.1c-2.4,2.4-2.4,4.9,0,7.3c4,4,8,8,12,12
		c2,2,4,4.1,6.1,6.1c2.1,2,4.8,1.9,6.7-0.1c1.6-1.8,1.5-4.4-0.4-6.3C71.9,95,66.8,90,61.5,84.6z M137,84.6
		C131.7,90,126.7,95,121.6,100c-2,2-2.1,4.8-0.3,6.6c1.8,1.9,4.6,1.8,6.6-0.2c6.1-6.1,12.2-12.2,18.3-18.3c2.1-2.1,2.1-4.7,0-6.8
		c-6.1-6.1-12.2-12.3-18.3-18.3c-2-2-4.8-2-6.6-0.1c-1.8,1.8-1.6,4.5,0.3,6.5c4.7,4.8,9.5,9.5,14.3,14.3
		C136.2,84.1,136.6,84.3,137,84.6z"/>
	<g>
		<g>
			<path fill="#4F4F4F" d="M115.9,55.5c-2.3-2.7-6-2-7.7,1.3c-8.8,17.7-17.7,35.3-26.5,53c-0.4,0.7-0.5,1.6-0.8,2.3
				c0.2,2.4,1.8,4.1,4.1,4.4c2.1,0.3,3.7-0.7,4.8-2.9c6.5-13,13-26,19.5-39c2.3-4.7,4.7-9.4,7-14.1
				C117.3,58.8,117.2,57.1,115.9,55.5z"/>
		</g>
	</g>
	<g>
		<g>
			<path fill="#4F4F4F" d="M77,100.1C71.9,95,66.8,90,61.5,84.6c0.5-0.3,0.8-0.6,1.2-0.9c4.7-4.7,9.4-9.4,14.1-14.1
				c1.3-1.3,2-2.8,1.6-4.6c-0.4-1.7-1.5-2.9-3.3-3.3c-1.7-0.5-3.2,0.1-4.5,1.3c-6,6-12.1,12.1-18.1,18.1c-2.4,2.4-2.4,4.9,0,7.3
				c4,4,8,8,12,12c2,2,4,4.1,6.1,6.1c2.1,2,4.8,1.9,6.7-0.1C79,104.6,78.9,102,77,100.1z"/>
		</g>
	</g>
	<g>
		<g>
			<path fill="#4F4F4F" d="M146.2,81.4c-6.1-6.1-12.2-12.3-18.3-18.3c-2-2-4.8-2-6.6-0.1c-1.8,1.8-1.6,4.5,0.3,6.5
				c4.7,4.8,9.5,9.5,14.3,14.3c0.3,0.3,0.7,0.5,1.2,0.9C131.7,90,126.7,95,121.6,100c-2,2-2.1,4.8-0.3,6.6c1.8,1.9,4.6,1.8,6.6-0.2
				c6.1-6.1,12.2-12.2,18.3-18.3C148.3,86.1,148.3,83.5,146.2,81.4z"/>
		</g>
	</g>
</g>
</svg>
