<?xml version="1.0" encoding="utf-8"?>
<!-- Generator: Adobe Illustrator 18.1.0, SVG Export Plug-In . SVG Version: 6.00 Build 0)  -->
<!DOCTYPE svg PUBLIC "-//W3C//DTD SVG 1.1//EN" "http://www.w3.org/Graphics/SVG/1.1/DTD/svg11.dtd">
<svg version="1.1" id="Layer_1" xmlns="http://www.w3.org/2000/svg" xmlns:xlink="http://www.w3.org/1999/xlink" x="0px" y="0px"
	 viewBox="0 0 200 200" enable-background="new 0 0 200 200" xml:space="preserve">
<g>
	<path fill="#FFFFFF" d="M15.3,173.6c0-49.3,0-98.6,0-148c56.1,0,112.2,0,168.2,0c0,49.3,0,98.6,0,148
		C127.4,173.6,71.3,173.6,15.3,173.6z M100.4,141.1c0.9-0.6,1.9-1,2.6-1.7c3.3-3.2,6.5-6.5,9.7-9.8c1.5-1.6,1.4-2.5,0-4.2
		c-2-2.6-4.1-5.2-6.1-7.8c-0.3-0.4-0.3-1.1-0.1-1.5c0.5-1.5,1.2-2.9,1.8-4.3c0.2-0.6,0.5-0.9,1.2-1c3.5-0.5,7.1-1.1,10.6-1.7
		c1.9-0.3,2.6-1.1,2.6-2.9c0-4.6,0-9.2,0-13.8c0-1.7-0.7-2.5-2.4-2.8c-3.3-0.5-6.7-1-10-1.5c-1-0.1-1.6-0.4-2-1.5
		c-0.4-1.4-1.1-2.8-1.7-4.1c-0.4-0.8-0.4-1.4,0.2-2.2c1.7-2.2,3.4-4.4,5.1-6.6c2.1-2.8,2.2-3.3-0.1-5.8c-2.9-3.1-5.9-6.1-9-9.1
		c-1.6-1.6-2.7-1.7-4.5-0.3c-2.6,2-5.3,3.9-7.9,6c-0.6,0.5-1.1,0.5-1.8,0.2c-1.4-0.6-2.8-1.1-4.2-1.8c-0.4-0.2-0.8-0.7-0.9-1.1
		c-0.6-3.5-1.1-7-1.6-10.5c-0.3-2-1.1-2.7-3.1-2.7c-4.5,0-9,0-13.4,0c-2.1,0-2.8,0.5-3.2,2.6c-0.6,3.4-1.1,6.8-1.5,10.3
		c-0.1,0.8-0.4,1.3-1.2,1.6c-1.4,0.5-2.8,1.1-4.1,1.7c-0.7,0.4-1.2,0.2-1.8-0.2c-2.4-1.9-4.8-3.8-7.3-5.7c-2.2-1.7-3.1-1.9-5.1,0
		c-3.3,3.1-6.5,6.3-9.7,9.6c-1.7,1.7-1.5,2.8,0,4.7c2,2.5,3.9,5.1,5.9,7.6c0.5,0.6,0.5,1,0.2,1.7c-0.7,1.4-1.2,2.9-1.9,4.3
		c-0.2,0.4-0.7,0.8-1.1,0.9c-3.5,0.6-7,1.1-10.5,1.7c-2.2,0.4-2.8,1-2.8,3.3c0,4.4,0,8.8,0,13.2c0,2.1,0.7,2.8,2.7,3.1
		c3.4,0.5,6.8,1.1,10.2,1.6c0.7,0.1,1.1,0.4,1.4,1.2c0.5,1.5,1.2,3,1.9,4.4c0.4,0.8,0.3,1.4-0.2,2.1c-1.8,2.2-3.6,4.5-5.3,6.8
		c-1.9,2.5-1.9,3,0.1,5.5c0.1,0.1,0.2,0.3,0.3,0.4c2.9,2.9,5.8,5.9,8.7,8.8c1.8,1.8,2.8,1.8,4.7,0.3c2.6-2,5.2-4,7.9-5.9
		c0.4-0.3,1.1-0.3,1.5-0.2c1.5,0.5,3,1.2,4.4,1.8c0.3,0.2,0.7,0.6,0.8,0.9c0.6,3.5,1.1,7,1.6,10.5c0.3,2.1,1.1,2.9,3.3,2.9
		c4.4,0,8.9,0,13.3,0c2.1,0,2.9-0.6,3.2-2.6c0.6-3.4,1.1-6.9,1.5-10.4c0.1-0.9,0.4-1.3,1.3-1.6c1.3-0.4,2.6-1,3.9-1.6
		c0.8-0.4,1.4-0.3,2.1,0.3c2.5,2,5,3.9,7.5,5.9C98.8,140.3,99.6,140.6,100.4,141.1z M163.4,116.8c-0.3-0.3-0.6-0.7-0.9-1
		c-2.8-1.6-5.6-3.2-8.4-4.9c-0.8-0.5-1.4-0.3-2,0.3c-1.6,1.9-3.3,3.6-4.7,5.6c-1.3,1.9-2.6,3-5,2.5c-0.2-0.1-0.5,0-0.8,0
		c-0.8,0.2-1.2-0.2-1.7-0.8c-2-2.5-4.1-5-6.1-7.4c-0.6-0.7-1.1-0.8-2-0.3c-2.7,1.6-5.5,3.2-8.3,4.8c-0.8,0.4-1,0.9-0.7,1.8
		c0.9,2.5,1.7,5.1,2.9,7.5c0.8,1.7,1.2,3.1-0.2,4.5c-0.3,0.3-0.4,0.6-0.5,1c-0.3,0.9-1,1.1-1.9,1.3c-3,0.4-6.1,1-9.1,1.5
		c-1,0.2-1.4,0.7-1.4,1.8c0.1,3,0.1,6.1,0,9.1c0,1.1,0.4,1.7,1.4,1.8c2.4,0.4,4.8,1,7.2,1.2c2,0.2,3.8,0.5,4.4,2.8
		c0.1,0.3,0.3,0.6,0.5,0.8c0.6,0.6,0.4,1.2,0.1,1.9c-1.2,3-2.3,6-3.5,8.9c-0.3,0.9-0.1,1.4,0.8,1.9c2.8,1.5,5.5,3.1,8.2,4.7
		c0.9,0.6,1.5,0.4,2.2-0.3c1.6-1.9,3.3-3.7,4.7-5.8c1.2-1.7,2.4-2.9,4.7-2.3c0.3,0.1,0.6,0,0.9,0c0.8-0.2,1.3,0.2,1.8,0.8
		c1.9,2.5,4,4.9,6,7.4c0.6,0.7,1.2,0.9,2.1,0.3c2.7-1.7,5.5-3.2,8.3-4.8c0.8-0.4,1-0.9,0.7-1.8c-0.9-2.4-1.7-5-2.8-7.3
		c-0.8-1.8-1.4-3.4,0.2-5c0.2-0.2,0.3-0.6,0.5-0.9c0.3-0.8,0.9-1,1.7-1.1c3-0.4,6-0.9,9-1.4c1.2-0.2,1.7-0.8,1.6-2.1
		c-0.1-3-0.1-5.9,0-8.9c0-1.1-0.4-1.7-1.4-1.9c-2.4-0.4-4.7-1-7.1-1.2c-2.1-0.2-4-0.5-4.6-2.9c-0.1-0.3-0.5-0.6-0.6-1
		c-0.1-0.5-0.3-1-0.1-1.5c0.7-1.8,1.6-3.6,2.3-5.5C162.4,119.9,162.8,118.4,163.4,116.8z M173.4,58.7c0-1.6-0.1-3.1,0-4.7
		c0.1-1.1-0.4-1.6-1.3-1.8c-2.4-0.4-4.7-1-7.1-1.2c-2.2-0.2-4.1-0.5-4.7-3c-0.1-0.3-0.3-0.5-0.5-0.7c-0.5-0.6-0.4-1.1-0.2-1.8
		c1.2-3,2.3-6,3.5-9.1c0.3-0.8,0.1-1.3-0.7-1.8c-2.8-1.6-5.7-3.2-8.5-4.8c-0.8-0.5-1.3-0.3-1.8,0.3c-1.8,2.1-3.6,4.1-5.2,6.3
		c-1,1.4-2,2.2-3.8,1.8c-0.4-0.1-0.9-0.1-1.4,0c-0.8,0.2-1.3-0.2-1.8-0.8c-2-2.5-4.1-5-6.1-7.4c-0.5-0.6-1.1-0.7-1.9-0.3
		c-2.7,1.6-5.5,3.2-8.3,4.8c-0.8,0.5-1.1,1-0.7,1.8c0.9,2.4,1.6,4.8,2.7,7.1c0.9,1.9,1.4,3.5-0.2,5.2c-0.2,0.2-0.3,0.5-0.4,0.8
		c-0.3,0.9-1,1.1-1.8,1.2c-3,0.4-6.1,1-9.1,1.5c-1,0.2-1.4,0.7-1.4,1.8c0.1,3,0.1,6,0,9c0,1.2,0.4,1.7,1.5,1.9
		c2.4,0.4,4.7,0.9,7.1,1.2c2.1,0.2,3.9,0.4,4.5,2.8c0.1,0.3,0.3,0.6,0.5,0.8c0.5,0.6,0.4,1.1,0.1,1.8c-1.2,3-2.3,6-3.5,9.1
		c-0.3,0.8,0,1.3,0.7,1.8c2.8,1.6,5.6,3.2,8.3,4.8c0.9,0.5,1.5,0.4,2.1-0.3c1.8-2.2,3.7-4.4,5.4-6.7c0.8-1.1,1.6-1.9,3.1-1.5
		c0.6,0.1,1.3,0.1,1.9,0c0.8-0.2,1.2,0.2,1.7,0.8c2,2.5,4,4.9,6,7.4c0.7,0.9,1.4,0.8,2.3,0.3c2.6-1.6,5.3-3.1,8-4.6
		c0.9-0.5,1.2-1.1,0.8-2c-1.2-3-2.3-6-3.4-9c-0.2-0.4-0.3-1-0.1-1.4c1.9-3.6,1.9-3.6,6-4.1c2.2-0.3,4.5-0.8,6.7-1.2
		c0.8-0.2,1.2-0.7,1.2-1.6C173.3,61.8,173.4,60.2,173.4,58.7z"/>
	<path fill="#4F4F4F" d="M100.4,141.1c-0.8-0.5-1.6-0.8-2.3-1.3c-2.5-1.9-5-3.9-7.5-5.9c-0.7-0.6-1.3-0.7-2.1-0.3
		c-1.2,0.6-2.5,1.1-3.9,1.6c-0.9,0.3-1.1,0.7-1.3,1.6c-0.4,3.5-0.9,6.9-1.5,10.4c-0.3,2-1.1,2.6-3.2,2.6c-4.4,0-8.9,0-13.3,0
		c-2.2,0-2.9-0.7-3.3-2.9c-0.5-3.5-1-7-1.6-10.5c-0.1-0.4-0.5-0.8-0.8-0.9c-1.5-0.7-2.9-1.3-4.4-1.8c-0.5-0.2-1.2-0.1-1.5,0.2
		c-2.7,1.9-5.3,3.9-7.9,5.9c-2,1.5-3,1.5-4.7-0.3c-2.9-2.9-5.8-5.9-8.7-8.8c-0.1-0.1-0.2-0.3-0.3-0.4c-2-2.5-2-2.9-0.1-5.5
		c1.8-2.3,3.5-4.6,5.3-6.8c0.6-0.7,0.7-1.3,0.2-2.1c-0.7-1.4-1.4-2.9-1.9-4.4c-0.3-0.8-0.6-1.1-1.4-1.2c-3.4-0.5-6.8-1.1-10.2-1.6
		c-2-0.3-2.7-1-2.7-3.1c0-4.4,0-8.8,0-13.2c0-2.3,0.6-2.9,2.8-3.3c3.5-0.6,7-1.1,10.5-1.7c0.4-0.1,0.9-0.5,1.1-0.9
		c0.7-1.4,1.2-2.9,1.9-4.3c0.3-0.7,0.3-1.1-0.2-1.7c-2-2.5-4-5.1-5.9-7.6c-1.5-1.9-1.6-2.9,0-4.7c3.1-3.3,6.3-6.5,9.7-9.6
		c2-1.9,2.9-1.7,5.1,0c2.4,1.9,4.9,3.8,7.3,5.7c0.6,0.5,1.1,0.6,1.8,0.2c1.3-0.6,2.7-1.2,4.1-1.7c0.9-0.3,1.1-0.8,1.2-1.6
		c0.5-3.4,0.9-6.8,1.5-10.3c0.4-2.1,1.1-2.6,3.2-2.6c4.5,0,9,0,13.4,0c2,0,2.8,0.7,3.1,2.7c0.5,3.5,1,7,1.6,10.5
		c0.1,0.4,0.5,0.9,0.9,1.1c1.4,0.7,2.8,1.1,4.2,1.8c0.7,0.3,1.2,0.3,1.8-0.2c2.6-2,5.2-4,7.9-6c1.9-1.4,2.9-1.4,4.5,0.3
		c3,3,6.1,6,9,9.1c2.4,2.6,2.3,3,0.1,5.8c-1.7,2.2-3.4,4.4-5.1,6.6c-0.6,0.7-0.6,1.3-0.2,2.2c0.6,1.3,1.3,2.7,1.7,4.1
		c0.3,1.1,1,1.4,2,1.5c3.3,0.5,6.7,1,10,1.5c1.7,0.3,2.4,1.1,2.4,2.8c0,4.6,0,9.2,0,13.8c0,1.9-0.7,2.6-2.6,2.9
		c-3.5,0.6-7.1,1.1-10.6,1.7c-0.7,0.1-1,0.4-1.2,1c-0.6,1.5-1.2,2.9-1.8,4.3c-0.2,0.5-0.1,1.2,0.1,1.5c2,2.6,4,5.2,6.1,7.8
		c1.3,1.7,1.5,2.7,0,4.2c-3.1,3.3-6.4,6.6-9.7,9.8C102.3,140.1,101.3,140.5,100.4,141.1z M51.7,99.1c0,11.3,9,20.3,20.3,20.3
		c11.1,0,20.2-9.1,20.2-20.3c0-11.1-9.1-20.2-20.2-20.2C60.8,78.9,51.7,87.8,51.7,99.1z"/>
	<path fill="#4F4F4F" d="M163.4,116.8c-0.6,1.6-1,3.1-1.5,4.5c-0.7,1.8-1.6,3.6-2.3,5.5c-0.2,0.4,0,1,0.1,1.5c0.1,0.3,0.5,0.6,0.6,1
		c0.7,2.4,2.6,2.7,4.6,2.9c2.4,0.2,4.7,0.8,7.1,1.2c1,0.2,1.4,0.8,1.4,1.9c-0.1,3-0.1,5.9,0,8.9c0,1.3-0.5,1.9-1.6,2.1
		c-3,0.5-6,1-9,1.4c-0.8,0.1-1.4,0.3-1.7,1.1c-0.1,0.3-0.2,0.7-0.5,0.9c-1.6,1.6-1.1,3.2-0.2,5c1.1,2.4,1.9,4.9,2.8,7.3
		c0.3,0.8,0,1.3-0.7,1.8c-2.8,1.6-5.6,3.2-8.3,4.8c-0.9,0.5-1.5,0.4-2.1-0.3c-2-2.5-4-4.9-6-7.4c-0.5-0.6-0.9-1-1.8-0.8
		c-0.3,0.1-0.6,0.1-0.9,0c-2.2-0.6-3.5,0.6-4.7,2.3c-1.4,2-3.1,3.8-4.7,5.8c-0.6,0.8-1.2,0.9-2.2,0.3c-2.7-1.6-5.5-3.2-8.2-4.7
		c-0.8-0.5-1.1-1-0.8-1.9c1.1-3,2.3-6,3.5-8.9c0.3-0.7,0.5-1.3-0.1-1.9c-0.2-0.2-0.5-0.5-0.5-0.8c-0.6-2.3-2.4-2.6-4.4-2.8
		c-2.4-0.2-4.8-0.8-7.2-1.2c-1-0.2-1.5-0.7-1.4-1.8c0.1-3,0.1-6.1,0-9.1c0-1.1,0.4-1.6,1.4-1.8c3-0.5,6.1-1.1,9.1-1.5
		c0.9-0.1,1.6-0.3,1.9-1.3c0.1-0.4,0.3-0.7,0.5-1c1.4-1.5,1-2.9,0.2-4.5c-1.1-2.4-1.9-5-2.9-7.5c-0.3-0.8-0.1-1.3,0.7-1.8
		c2.8-1.6,5.6-3.1,8.3-4.8c0.8-0.5,1.4-0.4,2,0.3c2,2.5,4.1,4.9,6.1,7.4c0.5,0.6,0.9,1,1.7,0.8c0.2-0.1,0.5-0.1,0.8,0
		c2.4,0.5,3.7-0.6,5-2.5c1.3-2,3.1-3.8,4.7-5.6c0.6-0.7,1.1-0.8,2-0.3c2.8,1.7,5.6,3.2,8.4,4.9C162.8,116,163.1,116.5,163.4,116.8z
		 M132.8,139.7c0,5.5,4.7,10.2,10,10.1c5.7-0.1,10.2-4.6,10.2-10.2c0-5.5-4.8-10.1-10.4-10.1C137.4,129.6,132.8,134.3,132.8,139.7z"
		/>
	<path fill="#4F4F4F" d="M173.4,58.7c0,1.5-0.1,3,0,4.6c0,0.9-0.3,1.5-1.2,1.6c-2.2,0.4-4.5,0.9-6.7,1.2c-4.1,0.5-4.1,0.5-6,4.1
		c-0.2,0.3-0.1,0.9,0.1,1.4c1.1,3,2.3,6,3.4,9c0.4,1,0.1,1.5-0.8,2c-2.7,1.5-5.4,3-8,4.6c-0.9,0.5-1.6,0.6-2.3-0.3
		c-2-2.5-4-4.9-6-7.4c-0.5-0.6-0.9-0.9-1.7-0.8c-0.6,0.1-1.3,0.2-1.9,0c-1.5-0.4-2.2,0.4-3.1,1.5c-1.7,2.3-3.6,4.4-5.4,6.7
		c-0.6,0.7-1.2,0.9-2.1,0.3c-2.7-1.7-5.5-3.2-8.3-4.8c-0.8-0.4-1-1-0.7-1.8c1.2-3,2.3-6.1,3.5-9.1c0.3-0.7,0.4-1.2-0.1-1.8
		c-0.2-0.3-0.5-0.5-0.5-0.8c-0.6-2.4-2.5-2.6-4.5-2.8c-2.4-0.2-4.7-0.8-7.1-1.2c-1.1-0.2-1.5-0.7-1.5-1.9c0.1-3,0.1-6,0-9
		c0-1.1,0.4-1.7,1.4-1.8c3-0.5,6.1-1,9.1-1.5c0.9-0.1,1.5-0.3,1.8-1.2c0.1-0.3,0.2-0.6,0.4-0.8c1.7-1.7,1.1-3.3,0.2-5.2
		c-1.1-2.3-1.8-4.7-2.7-7.1c-0.3-0.9-0.1-1.4,0.7-1.8c2.8-1.6,5.6-3.1,8.3-4.8c0.8-0.5,1.3-0.4,1.9,0.3c2,2.5,4.1,4.9,6.1,7.4
		c0.5,0.6,0.9,1,1.8,0.8c0.4-0.1,0.9-0.1,1.4,0c1.8,0.4,2.8-0.4,3.8-1.8c1.6-2.2,3.5-4.2,5.2-6.3c0.5-0.6,1.1-0.8,1.8-0.3
		c2.8,1.7,5.6,3.3,8.5,4.8c0.8,0.4,1,1,0.7,1.8c-1.2,3-2.3,6.1-3.5,9.1c-0.3,0.7-0.3,1.2,0.2,1.8c0.2,0.2,0.4,0.5,0.5,0.7
		c0.7,2.4,2.6,2.8,4.7,3c2.4,0.2,4.7,0.8,7.1,1.2c1,0.2,1.4,0.7,1.3,1.8C173.3,55.6,173.4,57.1,173.4,58.7z M153.1,58.6
		c0.1-5.3-4.6-10-10.1-10.1c-5.3-0.1-10.1,4.6-10.2,9.9c-0.1,5.6,4.4,10.3,9.9,10.4C148.5,68.8,153,64.3,153.1,58.6z"/>
	<path fill="#FFFFFF" d="M51.7,99.1c0-11.3,9-20.2,20.4-20.2c11.1,0,20.1,9.1,20.2,20.2c0,11.2-9.1,20.3-20.2,20.3
		C60.7,119.4,51.8,110.4,51.7,99.1z"/>
	<path fill="#FFFFFF" d="M132.8,139.7c0-5.4,4.6-10.1,9.9-10.2c5.6-0.1,10.3,4.5,10.4,10.1c0,5.6-4.5,10.1-10.2,10.2
		C137.5,149.9,132.9,145.2,132.8,139.7z"/>
	<path fill="#FFFFFF" d="M153.1,58.6c-0.1,5.8-4.6,10.2-10.4,10.2c-5.5-0.1-10-4.8-9.9-10.4c0.1-5.3,4.9-10,10.2-9.9
		C148.5,48.6,153.2,53.2,153.1,58.6z"/>
</g>
</svg>
