<?xml version="1.0" encoding="utf-8"?>
<!-- Generator: Adobe Illustrator 18.1.0, SVG Export Plug-In . SVG Version: 6.00 Build 0)  -->
<!DOCTYPE svg PUBLIC "-//W3C//DTD SVG 1.1//EN" "http://www.w3.org/Graphics/SVG/1.1/DTD/svg11.dtd">
<svg version="1.1" id="Layer_1" xmlns="http://www.w3.org/2000/svg" xmlns:xlink="http://www.w3.org/1999/xlink" x="0px" y="0px"
	 viewBox="0 0 200 200" enable-background="new 0 0 200 200" xml:space="preserve">
<g>
	<path opacity="0" fill="#FFFFFF" d="M5,187.4c0-58.5,0-117,0-175.5c62.8,0,125.5,0,188.3,0c0,58.5,0,117,0,175.5
		C130.6,187.4,67.8,187.4,5,187.4z M92.6,67.8c-0.1,0-0.2-0.1-0.3-0.1c-7.7,0-15.4,0-23.1,0c-0.6,0-0.6,0.3-0.7,0.7
		c-0.7,4.4-1.3,8.9-2,13.3c-0.1,0.7-0.4,0.9-0.9,1.1c-4.2,1.5-8.2,3.5-11.7,6.4c-0.4,0.4-0.8,0.4-1.3,0.2c-3.3-1.4-6.6-2.8-9.9-4.2
		c-1.3-0.5-2.6-1.1-4-1.7c-4,6.9-8,13.7-12,20.6c0.3,0.3,0.5,0.4,0.8,0.6c3.7,2.9,7.4,5.7,11.1,8.6c0.4,0.3,0.6,0.6,0.5,1.2
		c-0.8,4.5-0.8,9,0,13.6c0.1,0.6,0,0.9-0.5,1.2c-2.6,2-5.1,4-7.7,6c-1.4,1.1-2.8,2.2-4.2,3.3c4,6.9,8,13.8,11.9,20.7
		c0.3-0.1,0.5-0.2,0.7-0.3c4.3-1.8,8.7-3.5,13-5.3c0.6-0.3,1.1-0.2,1.6,0.2c3.6,3.1,7.4,5.8,11.8,7.6c0.3,0.1,0.6,0.4,0.6,0.7
		c0.5,3.7,1,7.5,1.5,11.2c0.2,1.6,0.4,3.1,0.6,4.7c8,0,15.9,0,23.9,0c0.1-0.4,0.1-0.7,0.2-1c0.7-5,1.3-9.9,2-14.9
		c0-0.3,0.3-0.6,0.6-0.7c4.4-1.7,8.3-4.2,11.9-7.3c0.5-0.4,0.8-0.4,1.4-0.2c1.9,0.8,3.8,1.5,5.7,2.2c2.7,1.1,5.4,2.1,8.2,3.2
		c4-6.9,7.9-13.8,11.9-20.8c-0.3-0.3-0.6-0.5-0.9-0.7c-3.6-2.9-7.3-5.7-10.9-8.6c-0.4-0.3-0.6-0.7-0.5-1.2c0.8-4.6,0.8-9.1,0-13.7
		c-0.1-0.4,0.2-0.9,0.4-1.1c2.6-2.1,5.2-4.1,7.8-6.1c1.4-1.1,2.7-2.1,4.1-3.2c-0.1-0.2-0.1-0.3-0.2-0.4c-3.8-6.5-7.6-13.1-11.3-19.6
		c-0.3-0.6-0.6-0.6-1.2-0.4c-4.4,1.8-8.8,3.6-13.2,5.3c-0.3,0.1-0.9,0.1-1.1-0.1c-3.5-2.8-7.5-4.6-11.7-6c-0.6-0.2-0.9-0.5-1-1.2
		c-0.3-2.2-0.6-4.5-1-6.7C93.3,72.6,93,70.2,92.6,67.8z M182.6,45.8c-2.9-5-5.9-10-8.8-15c-3.2,1.3-6.4,2.6-9.6,3.8
		c-0.3,0.1-0.8,0.2-1.1,0.1c-2.4-1.7-5-2.5-7.8-3.3c-0.5-0.2-0.7-0.4-0.8-0.9c-0.4-2.7-0.9-5.3-1.3-8c-0.1-0.7-0.3-0.9-1-0.9
		c-5.3,0-10.6,0-15.8,0c-0.2,0-0.5,0-0.8,0c-0.5,2.9-1,5.9-1.4,8.8c-0.1,0.7-0.4,0.9-1,1.1c-2.6,0.9-5.1,2.1-7.4,3.7
		c-0.3,0.2-0.8,0.2-1.1,0.1c-3-1.2-6-2.5-8.9-3.8c-0.6-0.3-0.9-0.2-1.2,0.4c-2.6,4.4-5.2,8.7-7.7,13.1c-0.2,0.4-0.4,0.7-0.6,1.1
		c2.8,2.1,5.5,4.2,8.2,6.2c0.5,0.3,0.6,0.7,0.5,1.2c-0.5,2.8-0.4,5.5,0,8.3c0.1,0.6,0,0.9-0.5,1.2c-1.3,1-2.6,2-3.9,3
		c-1.4,1.1-2.8,2.2-4.3,3.3c2.9,5,5.8,9.9,8.8,14.9c0.3-0.1,0.6-0.2,0.9-0.3c2.8-1.1,5.6-2.2,8.4-3.4c0.8-0.3,1.3-0.2,1.9,0.3
		c2.1,2,4.3,4,7,5.3c0.7,0.3,1,0.8,1.1,1.5c0.3,2.7,0.6,5.4,1,8.1c0.1,1.1,0.3,2.2,0.4,3.3c5.9,0,11.8,0,17.6,0
		c0.5-4,1-7.9,1.5-11.8c0-0.3,0.2-0.7,0.5-0.8c2.9-1.3,5.4-3.1,7.8-5.1c0.4-0.4,0.8-0.4,1.3-0.2c2.9,1.1,5.9,2.1,8.9,3.2
		c0.2,0.1,0.5,0.1,0.8,0.2c2.9-5,5.8-10,8.7-15c-0.2-0.2-0.3-0.3-0.5-0.4c-2.5-2-5.1-3.9-7.6-5.9c-0.4-0.3-0.6-0.6-0.6-1.3
		c0.1-2.8,0.1-5.7,0-8.5c0-0.5,0-0.9,0.5-1.2C177.1,50.1,179.8,48,182.6,45.8z"/>
	<path fill="#4F4F4F" d="M92.6,67.8c0.4,2.4,0.7,4.8,1.1,7.2c0.3,2.2,0.7,4.5,1,6.7c0.1,0.7,0.4,1,1,1.2c4.2,1.4,8.2,3.3,11.7,6
		c0.3,0.2,0.8,0.2,1.1,0.1c4.4-1.7,8.8-3.5,13.2-5.3c0.5-0.2,0.8-0.2,1.2,0.4c3.8,6.6,7.5,13.1,11.3,19.6c0.1,0.1,0.1,0.2,0.2,0.4
		c-1.4,1.1-2.7,2.1-4.1,3.2c-2.6,2-5.2,4-7.8,6.1c-0.3,0.2-0.5,0.8-0.4,1.1c0.7,4.6,0.7,9.1,0,13.7c-0.1,0.6,0.1,0.9,0.5,1.2
		c3.7,2.8,7.3,5.7,10.9,8.6c0.3,0.2,0.6,0.5,0.9,0.7c-4,6.9-7.9,13.8-11.9,20.8c-2.8-1.1-5.5-2.1-8.2-3.2c-1.9-0.7-3.8-1.5-5.7-2.2
		c-0.5-0.2-0.9-0.2-1.4,0.2c-3.6,3-7.5,5.5-11.9,7.3c-0.3,0.1-0.5,0.5-0.6,0.7c-0.7,4.9-1.4,9.9-2,14.9c0,0.3-0.1,0.7-0.2,1
		c-8,0-15.9,0-23.9,0c-0.2-1.6-0.4-3.1-0.6-4.7c-0.5-3.7-1-7.5-1.5-11.2c0-0.3-0.3-0.6-0.6-0.7c-4.4-1.8-8.2-4.5-11.8-7.6
		c-0.5-0.5-1-0.5-1.6-0.2c-4.3,1.8-8.7,3.5-13,5.3c-0.2,0.1-0.4,0.2-0.7,0.3c-4-6.9-7.9-13.7-11.9-20.7c1.4-1.1,2.8-2.2,4.2-3.3
		c2.5-2,5.1-4,7.7-6c0.4-0.3,0.6-0.6,0.5-1.2c-0.8-4.5-0.8-9,0-13.6c0.1-0.6,0-0.9-0.5-1.2c-3.7-2.9-7.4-5.7-11.1-8.6
		c-0.2-0.2-0.5-0.4-0.8-0.6c4-6.9,8-13.7,12-20.6c1.4,0.6,2.7,1.1,4,1.7c3.3,1.4,6.6,2.8,9.9,4.2c0.5,0.2,0.9,0.2,1.3-0.2
		c3.5-2.8,7.4-4.9,11.7-6.4c0.6-0.2,0.8-0.5,0.9-1.1c0.6-4.4,1.3-8.9,2-13.3c0.1-0.4,0.1-0.7,0.7-0.7c7.7,0,15.4,0,23.1,0
		C92.4,67.7,92.5,67.8,92.6,67.8z M31.1,139.4c3,5.3,6,10.5,9.1,15.7c0.2-0.1,0.3-0.1,0.5-0.2c3.6-1.4,7.2-2.7,10.7-4.4
		c2-0.9,3.2-0.7,4.8,0.8c3.7,3.4,7.9,6.2,12.7,7.7c0.6,0.2,0.6,0.6,0.7,1c0.3,2.5,0.7,5,1,7.4c0.3,2.4,0.7,4.9,1,7.3
		c6.1,0,12.1,0,18.1,0c0.1-0.2,0.1-0.3,0.1-0.4c0.6-4.8,1.3-9.6,1.9-14.3c0.1-0.4,0.4-0.9,0.7-1c5.5-1.8,10.1-4.9,14.3-8.7
		c0.4-0.3,0.7-0.4,1.1-0.2c1.6,0.6,3.2,1.3,4.8,1.9c2.8,1.1,5.6,2.2,8.5,3.3c3-5.3,6.1-10.5,9.1-15.8c-0.3-0.3-0.6-0.5-0.9-0.7
		c-3.4-2.7-6.9-5.4-10.3-8.1c-0.4-0.3-0.6-0.6-0.4-1.2c1.1-5.4,1.1-10.8,0-16.3c-0.1-0.7,0-1,0.5-1.4c1.5-1.1,3-2.3,4.5-3.5
		c2.2-1.7,4.4-3.5,6.6-5.2c-3-5.3-6-10.5-9.1-15.7c-0.3,0.1-0.5,0.2-0.7,0.3c-4.1,1.7-8.2,3.3-12.4,5c-0.6,0.3-1,0.1-1.5-0.3
		c-1.3-1-2.5-2-3.9-2.9c-3.1-2-6.5-3.2-10-4.4c-0.5-0.2-0.8-0.4-0.9-1c-0.6-4.1-1.2-8.3-1.8-12.4c-0.1-0.8-0.4-0.9-1.1-0.9
		c-5.5,0-10.9,0-16.4,0c-0.3,0-0.5,0-0.8,0c0,0.1-0.1,0.2-0.1,0.3c-0.6,4.2-1.2,8.3-1.8,12.5c-0.1,0.8-0.4,1.3-1.3,1.6
		c-5.1,1.6-9.9,4.1-13.9,7.7c-0.4,0.4-0.7,0.3-1.1,0.1c-3.5-1.5-7-2.9-10.4-4.4c-0.9-0.4-1.8-0.7-2.8-1.1c-3,5.2-6,10.4-9,15.6
		c0.3,0.2,0.4,0.4,0.6,0.5c3.5,2.7,6.9,5.4,10.4,8.1c0.5,0.4,0.7,0.8,0.6,1.4c-1,4.6-1.1,9.3-0.4,14c0.2,1,0.6,2.2,0.3,3
		c-0.4,0.8-1.5,1.3-2.3,2C37.3,134.6,34.3,137,31.1,139.4z"/>
	<path fill="#4F4F4F" d="M182.6,45.8c-2.8,2.2-5.5,4.2-8.2,6.3c-0.5,0.4-0.5,0.7-0.5,1.2c0.1,2.8,0.1,5.7,0,8.5
		c0,0.6,0.1,0.9,0.6,1.3c2.5,2,5.1,3.9,7.6,5.9c0.2,0.1,0.3,0.3,0.5,0.4c-2.9,5-5.8,10-8.7,15c-0.3-0.1-0.5-0.1-0.8-0.2
		c-3-1.1-5.9-2.1-8.9-3.2c-0.5-0.2-0.9-0.1-1.3,0.2c-2.4,2-4.9,3.9-7.8,5.1c-0.2,0.1-0.4,0.5-0.5,0.8c-0.5,3.9-1,7.8-1.5,11.8
		c-5.8,0-11.6,0-17.6,0c-0.1-1.1-0.3-2.2-0.4-3.3c-0.3-2.7-0.7-5.4-1-8.1c-0.1-0.7-0.4-1.2-1.1-1.5c-2.7-1.3-4.8-3.3-7-5.3
		c-0.6-0.6-1.1-0.7-1.9-0.3c-2.8,1.2-5.6,2.2-8.4,3.4c-0.3,0.1-0.6,0.2-0.9,0.3c-2.9-5-5.8-9.9-8.8-14.9c1.4-1.1,2.9-2.2,4.3-3.3
		c1.3-1,2.6-2,3.9-3c0.5-0.3,0.6-0.7,0.5-1.2c-0.4-2.8-0.5-5.5,0-8.3c0.1-0.6-0.1-0.9-0.5-1.2c-2.7-2-5.4-4.1-8.2-6.2
		c0.2-0.4,0.4-0.8,0.6-1.1c2.6-4.4,5.2-8.7,7.7-13.1c0.3-0.6,0.6-0.6,1.2-0.4c3,1.3,5.9,2.6,8.9,3.8c0.3,0.1,0.9,0.1,1.1-0.1
		c2.3-1.6,4.8-2.8,7.4-3.7c0.6-0.2,0.9-0.4,1-1.1c0.4-2.9,0.9-5.8,1.4-8.8c0.3,0,0.5,0,0.8,0c5.3,0,10.6,0,15.8,0
		c0.7,0,0.9,0.2,1,0.9c0.4,2.7,0.8,5.4,1.3,8c0.1,0.5,0.3,0.8,0.8,0.9c2.7,0.8,5.4,1.7,7.8,3.3c0.2,0.2,0.8,0.1,1.1-0.1
		c3.2-1.2,6.3-2.5,9.6-3.8C176.7,35.9,179.6,40.8,182.6,45.8z M110.6,45.1c2.5,1.9,4.9,3.8,7.4,5.6c0.5,0.4,0.7,0.7,0.6,1.4
		c-0.7,3.2-0.9,6.5-0.2,9.7c0.4,1.7-0.1,2.5-1.4,3.4c-2.2,1.5-4.2,3.2-6.4,4.8c1.8,3.1,3.7,6.2,5.4,9.3c0.3,0.6,0.6,0.6,1.2,0.4
		c2.7-1.1,5.4-2.2,8.1-3.3c0.5-0.2,0.8-0.2,1.1,0.2c0.6,0.6,1.2,1.1,1.8,1.6c2.6,2.3,5.1,4.7,8.5,5.8c0.2,0.1,0.4,0.4,0.4,0.6
		c0.3,1.9,0.5,3.8,0.7,5.7c0.2,1.8,0.4,3.6,0.7,5.3c4,0,7.8,0,11.7,0c0.4-3.2,0.8-6.3,1.1-9.5c0.1-1.4,0.4-2.5,2-2.7
		c0.3,0,0.6-0.2,0.8-0.3c3-1.3,5.4-3.4,7.8-5.5c0.5-0.4,0.9-0.5,1.5-0.3c2.6,1,5.3,1.9,8,2.9c0.6,0.2,0.8,0.1,1.1-0.4
		c1.7-3,3.4-5.9,5.1-8.9c0.1-0.2,0.2-0.5,0.4-0.7c-2.5-2-5-3.9-7.4-5.8c-0.5-0.3-0.6-0.7-0.5-1.3c0.8-3.8,0.8-7.6,0-11.3
		c-0.1-0.5,0.1-0.8,0.4-1.1c1.1-0.9,2.3-1.7,3.4-2.6c1.4-1.1,2.7-2.1,4.1-3.2c-2-3.4-3.9-6.6-5.9-10c-0.3,0.1-0.6,0.2-0.9,0.3
		c-2.4,1-4.9,1.9-7.3,2.9c-1,0.4-1.7,0.4-2.5-0.4c-0.6-0.7-1.5-1.2-2.4-1.5c-1.7-0.7-3.4-1.4-5.1-1.9c-1.8-0.4-3-1.2-2.8-3.2
		c0-0.3-0.1-0.5-0.1-0.8c-0.3-1.9-0.6-3.8-0.9-5.6c-4,0-7.9,0-11.8,0c-0.4,2.7-0.9,5.3-1.3,7.9c-0.1,0.7-0.4,1-1.1,1.2
		c-3.6,1.1-7,2.5-9.8,5.1c-0.2,0.2-0.6,0.2-0.9,0.1c-1-0.4-1.9-0.8-2.9-1.2c-2-0.9-4.1-1.7-6.2-2.6
		C114.4,38.6,112.5,41.9,110.6,45.1z"/>
	<path fill="#4F4F4F" d="M102.9,121.4c0.1,12.1-10.1,22.4-22.7,22.2c-11.8-0.2-22-10.4-21.8-22.3c0.1-12.5,10.1-22.3,22.8-22.2
		C93.5,99.2,103.1,109.7,102.9,121.4z M61.7,121.2c0,10.3,7.9,18.6,17.9,19.1c11,0.6,19.3-7.9,19.9-17.7c0.7-10.8-7.6-19.7-18-20.2
		C70.8,101.9,62.1,110.2,61.7,121.2z"/>
	<path fill="#4F4F4F" d="M160.4,57.5c0,8.7-7.1,15.8-16,15.8c-9,0-16-7-16.1-15.8c-0.1-8.6,7.3-15.8,16-15.8
		C153.2,41.7,160.4,48.8,160.4,57.5z M144.4,70c7-0.1,12.7-5.7,12.6-12.5c-0.1-6.9-5.9-12.5-12.8-12.4c-7.1,0.1-12.8,5.8-12.7,12.6
		C131.7,64.5,137.5,70,144.4,70z"/>
</g>
</svg>
