<?xml version="1.0" encoding="utf-8"?>
<!-- Generator: Adobe Illustrator 18.1.0, SVG Export Plug-In . SVG Version: 6.00 Build 0)  -->
<!DOCTYPE svg PUBLIC "-//W3C//DTD SVG 1.1//EN" "http://www.w3.org/Graphics/SVG/1.1/DTD/svg11.dtd">
<svg version="1.1" id="Layer_1" xmlns="http://www.w3.org/2000/svg" xmlns:xlink="http://www.w3.org/1999/xlink" x="0px" y="0px"
	 viewBox="0 0 200 200" enable-background="new 0 0 200 200" xml:space="preserve">
<g>
	<path fill="#FFFFFF" d="M1.4,183.7c0-54.3,0-108.7,0-163c65.8,0,131.7,0,197.5,0c0,54.4,0,108.7,0,163
		C133.1,183.7,67.2,183.7,1.4,183.7z M74.6,101.4c2,1.6,4,3.1,6,4.6c13.4,10.3,26.9,20.7,40.3,31c12.5,9.6,25,19.2,37.5,28.8
		c2.2,1.7,4.6,2.8,7.3,3.2c5.8,0.7,11.4-3.3,12.4-9.1c0.9-4.8-1-8.6-4.5-11.6c-4.1-3.4-8.4-6.6-12.6-9.8
		c-15.8-12.1-31.5-24.3-47.3-36.4c-8.1-6.3-16.2-12.5-24.4-18.8c-0.2-0.1-0.3-0.2-0.6-0.4C84,89.1,79.3,95.2,74.6,101.4z M69,45.3
		c9,6.9,17.9,13.9,26.9,20.7c2.8,2.2,6,2.4,9.2,0.8c3.2-1.7,4.8-4.4,4.7-8c-0.1-2.7-1.2-4.9-3.4-6.6c-9-6.9-17.9-13.9-26.9-20.7
		c-2.8-2.2-6-2.5-9.2-0.9c-3.2,1.6-4.7,4.3-4.8,7.5C65.6,41.3,66.7,43.6,69,45.3z M60,112.3c-8.9-6.8-17.8-13.7-26.7-20.5
		c-5.2-3.9-12.4-1.5-13.9,4.7c-0.8,3.5,0.2,6.5,3,8.7c5.4,4.3,11,8.5,16.5,12.7c3.5,2.7,7,5.4,10.5,8.1c5.4,4.1,12.9,1.2,14.1-5.5
		c0.1-0.4,0.1-0.8,0.1-1.1C63.5,116.4,62.3,114,60,112.3z M85.6,80.1C76.4,73.1,67.2,66,58,58.9c-4.8,6.2-9.6,12.4-14.4,18.7
		c9.2,7.1,18.3,14.1,27.6,21.3C76,92.6,80.8,86.4,85.6,80.1z M69.1,101.6c-9.2-7.1-18.4-14.2-27.6-21.3c-2.1,2.8-4.3,5.5-6.4,8.3
		c9.2,7.1,18.4,14.2,27.6,21.3C64.8,107.1,66.9,104.4,69.1,101.6z M94.1,69.1C84.9,62,75.8,54.9,66.5,47.8c-2.1,2.8-4.3,5.5-6.4,8.3
		c9.2,7.1,18.3,14.1,27.6,21.3C89.9,74.6,92,71.9,94.1,69.1z"/>
	<path fill="#4F4F4F" d="M88.7,83c-4.7,6.1-9.4,12.2-14.2,18.4c2,1.6,4,3.1,6,4.6c13.4,10.3,26.9,20.7,40.3,31
		c12.5,9.6,25,19.2,37.5,28.8c2.2,1.7,4.6,2.8,7.3,3.2c5.8,0.7,11.4-3.3,12.4-9.1c0.9-4.8-1-8.6-4.5-11.6c-4.1-3.4-8.4-6.6-12.6-9.8
		c-15.8-12.1-31.5-24.3-47.3-36.4c-8.1-6.3-16.2-12.5-24.4-18.8C89.2,83.2,89,83.1,88.7,83z"/>
	<path fill="#4F4F4F" d="M65.5,38.2c0.1,3.1,1.2,5.4,3.5,7.1c9,6.9,17.9,13.9,26.9,20.7c2.8,2.2,6,2.4,9.2,0.8
		c3.2-1.7,4.8-4.4,4.7-8c-0.1-2.7-1.2-4.9-3.4-6.6c-9-6.9-17.9-13.9-26.9-20.7c-2.8-2.2-6-2.5-9.2-0.9
		C67.1,32.2,65.6,34.9,65.5,38.2z"/>
	<path fill="#4F4F4F" d="M63.5,119.4c0-3-1.3-5.4-3.5-7.1c-8.9-6.8-17.8-13.7-26.7-20.5c-5.2-3.9-12.4-1.5-13.9,4.7
		c-0.8,3.5,0.2,6.5,3,8.7c5.4,4.3,11,8.5,16.5,12.7c3.5,2.7,7,5.4,10.5,8.1c5.4,4.1,12.9,1.2,14.1-5.5
		C63.5,120.1,63.5,119.7,63.5,119.4z"/>
	<path fill="#4F4F4F" d="M71.2,98.9c4.8-6.3,9.6-12.5,14.4-18.7C76.4,73.1,67.2,66,58,58.9c-4.8,6.2-9.6,12.4-14.4,18.7
		C52.8,84.7,61.9,91.7,71.2,98.9z"/>
	<path fill="#4F4F4F" d="M62.6,110c2.2-2.8,4.3-5.5,6.4-8.3c-9.2-7.1-18.4-14.2-27.6-21.3c-2.1,2.8-4.3,5.5-6.4,8.3
		C44.3,95.8,53.4,102.8,62.6,110z"/>
	<path fill="#4F4F4F" d="M87.7,77.4c2.1-2.8,4.2-5.5,6.4-8.3C84.9,62,75.8,54.9,66.5,47.8c-2.1,2.8-4.3,5.5-6.4,8.3
		C69.3,63.2,78.5,70.3,87.7,77.4z"/>
</g>
</svg>
