<?xml version="1.0" encoding="utf-8"?>
<!-- Generator: Adobe Illustrator 18.1.0, SVG Export Plug-In . SVG Version: 6.00 Build 0)  -->
<!DOCTYPE svg PUBLIC "-//W3C//DTD SVG 1.1//EN" "http://www.w3.org/Graphics/SVG/1.1/DTD/svg11.dtd">
<svg version="1.1" id="Layer_1" xmlns="http://www.w3.org/2000/svg" xmlns:xlink="http://www.w3.org/1999/xlink" x="0px" y="0px"
	 viewBox="0 0 200 200" enable-background="new 0 0 200 200" xml:space="preserve">
<g>
	<path opacity="0" fill="#FFFFFF" d="M9.3,176.6c0-46.9,0-93.8,0-140.7c61.5,0,122.9,0,184.4,0c0,46.9,0,93.8,0,140.7
		C132.2,176.6,70.8,176.6,9.3,176.6z M99.4,166.1c0,0,0-0.1,0-0.1c19,0,38.1,0,57.1,0c4.8,0,9.4-0.9,13.9-2.7c5.1-2,9.3-5,11.4-10.2
		c3.3-8.2,2.2-15.8-3.6-22.6c-4.5-5.3-9.9-9.8-15.6-13.7c-15.2-10.3-30.6-20.4-46-30.6c-3.5-2.3-7.3-3.9-11.4-4.7
		c-0.7-0.1-0.9-0.4-0.9-1.1c0-2,0-4,0-6c0-0.6,0.3-1.2,0.6-1.6c2-2.8,4.2-5.5,5.9-8.4c5.1-8.8,0.5-17.5-5.6-21.2
		c-5.5-3.3-13.9-3-19.3,1c-3.6,2.7-5.8,6.2-5.9,10.8c-0.1,2.7,2,4.9,4.5,5c2.8,0.1,5.1-1.7,5.3-4.5c0.1-1.5,0.9-2.6,2.1-3.4
		c2.1-1.3,4.4-1.6,6.8-1c2.8,0.7,5.5,4.5,3.6,8c-1.7,3.2-3.8,5.9-6.3,8.4c-1.3,1.2-1.9,2.7-1.8,4.4c0,2.8,0,5.6,0,8.4
		c0,0.7-0.2,0.9-0.9,1.1c-4.3,0.8-8.2,2.5-11.8,4.9c-13.6,9.1-27.3,18.1-40.9,27.1c-6.7,4.4-13.1,9.3-18.7,15.1
		c-3.7,3.9-6.5,8.2-6.8,13.8c-0.3,5.6,0.7,10.7,4.5,15c2.9,3.3,6.6,5.2,10.7,6.5c4.9,1.6,10,2.1,15.1,2.1
		C63.4,166.2,81.4,166.1,99.4,166.1z"/>
	<g>
		<g>
			<path fill="#4F4F4F" d="M178.2,130.5c-4.5-5.3-9.9-9.8-15.6-13.7c-15.2-10.3-30.6-20.4-46-30.6c-3.5-2.3-7.3-3.9-11.4-4.7
				c-0.7-0.1-0.9-0.4-0.9-1.1c0-2,0-4,0-6c0-0.6,0.3-1.2,0.6-1.6c2-2.8,4.2-5.5,5.9-8.4c5.1-8.8,0.5-17.5-5.6-21.2
				c-5.5-3.3-13.9-3-19.3,1c-3.6,2.7-5.8,6.2-5.9,10.8c-0.1,2.7,2,4.9,4.5,5c2.8,0.1,5.1-1.7,5.3-4.5c0.1-1.5,0.9-2.6,2.1-3.4
				c2.1-1.3,4.4-1.6,6.8-1c2.8,0.7,5.5,4.5,3.6,8c-1.7,3.2-3.8,5.9-6.3,8.4c-1.3,1.2-1.9,2.7-1.8,4.4c0,2.8,0,5.6,0,8.4
				c0,0.7-0.2,0.9-0.9,1.1c-4.3,0.8-8.2,2.5-11.8,4.9c-13.6,9.1-27.3,18.1-40.9,27.1c-6.7,4.4-13.1,9.3-18.7,15.1
				c-3.7,3.9-6.5,8.2-6.8,13.8c-0.3,5.6,0.7,10.7,4.5,15c2.9,3.3,6.6,5.2,10.7,6.5c4.9,1.6,10,2.1,15.1,2.1c18,0,36,0,54,0
				c0,0,0-0.1,0-0.1c19,0,38.1,0,57.1,0c4.8,0,9.4-0.9,13.9-2.7c5.1-2,9.3-5,11.4-10.2C185.1,144.9,184,137.3,178.2,130.5z
				 M173.4,147.3c-0.5,2.8-2.3,4.6-4.7,5.9c-3,1.7-6.3,2.4-9.7,2.6c-3.1,0.2-6.2,0.3-9.2,0.3c-16.8,0-33.7,0-50.5,0
				c-18,0-36,0-53.9,0c-4.2,0-8.3-0.3-12.3-1.6c-2.4-0.8-4.6-1.8-6.2-3.8c-2.4-3-2.5-8.2-0.3-11.7c1.9-3,4.4-5.3,7-7.6
				c5.8-5.2,12.4-9.3,18.8-13.6c11.5-7.6,23-15.2,34.5-22.9c8-5.3,16.8-5.3,24.8,0c15,9.9,30,19.8,44.9,29.8
				c5.3,3.6,10.2,7.6,14.4,12.6C173.3,140.3,174.1,143.6,173.4,147.3z"/>
		</g>
	</g>
</g>
</svg>
