<?xml version="1.0" encoding="utf-8"?>
<!-- Generator: Adobe Illustrator 18.1.0, SVG Export Plug-In . SVG Version: 6.00 Build 0)  -->
<!DOCTYPE svg PUBLIC "-//W3C//DTD SVG 1.1//EN" "http://www.w3.org/Graphics/SVG/1.1/DTD/svg11.dtd">
<svg version="1.1" id="Layer_1" xmlns="http://www.w3.org/2000/svg" xmlns:xlink="http://www.w3.org/1999/xlink" x="0px" y="0px"
	 viewBox="0 0 200 200" enable-background="new 0 0 200 200" xml:space="preserve">
<g>
	<path opacity="0" fill="#FFFFFF" d="M4.7,183.8c0-55.4,0-110.8,0-166.1c62.9,0,125.8,0,188.7,0c0,55.4,0,110.8,0,166.1
		C130.5,183.8,67.6,183.8,4.7,183.8z M104.9,46.5c0.1-0.1,0.2-0.2,0.3-0.3c3-3.5,3.2-8.4,0.3-12c-1.1-1.3-2.3-2.5-3.6-3.6
		c-1.9-1.6-4.1-2.2-6.6-2c-2.6,0.2-4.6,1.4-6.4,3.2C79.6,41,70.3,50.3,61,59.6c-3.7,3.7-3.9,9.2-0.3,13.1c0.9,1,1.8,1.9,2.8,2.8
		c2.4,2.1,5.2,2.9,8.3,2c1.6-0.4,3.1-1.4,4.5-2c3.5,3.5,7.1,7.1,10.8,10.8c-0.2,0.2-0.6,0.5-0.9,0.8c-19.4,19.4-38.7,38.7-58.1,58.1
		c-6,6-4.7,15.6,2.5,19.8c5,2.9,11,1.9,15.3-2.4c19.4-19.4,38.7-38.7,58.1-58.1c0.3-0.3,0.5-0.5,0.8-0.7c4.4,4.4,8.7,8.7,13.1,13.1
		c-0.1,0.1-0.2,0.3-0.3,0.4c-3.2,3.7-3.1,8.9,0.2,12.5c0.8,0.9,1.6,1.7,2.5,2.5c3.9,3.6,9.4,3.6,13.1-0.2c9.5-9.5,19-18.9,28.5-28.5
		c3.7-3.7,3.7-9.3,0.1-13.1c-0.9-0.9-1.8-1.8-2.7-2.7c-2.2-1.9-4.7-2.7-7.6-2.2c-2,0.3-3.6,1.2-5.1,2.5
		C132.7,74.3,118.9,60.4,104.9,46.5z M148.2,161.5c-8,0-16.1,0-24.1,0c-1.2,0-2.5,0-3.7,0c-1.7,0-3,1.2-3.1,2.9
		c-0.1,1.6,1.1,2.9,2.8,3.1c0.4,0.1,0.8,0.1,1.2,0.1c18,0,35.9,0,53.9,0c0.4,0,0.8,0,1.1,0c0.9-0.1,1.7-0.4,2.3-1.2
		c0.7-1,0.8-2.1,0.2-3.1c-0.6-1.2-1.6-1.6-2.9-1.6C166.7,161.5,157.5,161.5,148.2,161.5z M148.3,158.2c5.4,0,10.8,0,16.2,0
		c1.9,0,3.8,0,5.6,0c2.2-0.1,3.6-2,2.9-4c-0.5-1.3-1.6-2-3.3-2c-14.3,0-28.7,0-43,0c-0.4,0-0.8,0-1.1,0.1c-1.3,0.2-2.2,1.4-2.3,2.7
		c-0.1,1.9,1.2,3.2,3.4,3.2C133.9,158.2,141.1,158.2,148.3,158.2z"/>
	<path fill="#4F4F4F" d="M104.9,46.5c13.9,13.9,27.8,27.8,41.7,41.7c1.4-1.3,3.1-2.2,5.1-2.5c2.9-0.4,5.4,0.3,7.6,2.2
		c1,0.8,1.8,1.8,2.7,2.7c3.6,3.7,3.6,9.4-0.1,13.1c-9.5,9.5-18.9,19-28.5,28.5c-3.8,3.8-9.2,3.8-13.1,0.2c-0.9-0.8-1.7-1.6-2.5-2.5
		c-3.3-3.6-3.4-8.8-0.2-12.5c0.1-0.1,0.2-0.3,0.3-0.4c-4.4-4.4-8.7-8.7-13.1-13.1c-0.2,0.2-0.5,0.5-0.8,0.7
		c-19.4,19.4-38.7,38.7-58.1,58.1c-4.3,4.3-10.3,5.2-15.3,2.4c-7.2-4.1-8.4-13.8-2.5-19.8c19.4-19.4,38.7-38.7,58.1-58.1
		c0.3-0.3,0.7-0.6,0.9-0.8c-3.7-3.7-7.3-7.3-10.8-10.8c-1.4,0.7-2.9,1.6-4.5,2c-3.1,0.9-5.9,0-8.3-2c-1-0.9-1.9-1.8-2.8-2.8
		c-3.6-3.9-3.5-9.4,0.3-13.1c9.3-9.3,18.6-18.6,27.8-27.9c1.8-1.8,3.8-3,6.4-3.2c2.5-0.2,4.7,0.4,6.6,2c1.3,1.1,2.6,2.3,3.6,3.6
		c2.9,3.6,2.8,8.5-0.3,12C105.1,46.3,105,46.4,104.9,46.5z M93.9,86.4c-0.2,0.2-0.6,0.3-0.9,0.6c-19.7,19.6-39.3,39.3-58.9,58.9
		c-1,1-2,2-3,3c-3.7,3.9-2.3,10.4,2.6,12.4c3.1,1.3,6.3,0.6,8.9-2C63,138.9,83.5,118.4,103.9,98c0.3-0.3,0.6-0.6,0.7-0.7
		c6.6,6.6,13.2,13.2,19.8,19.8c-1,1-2.1,2-3.1,3.1c-1.9,1.9-1.9,4.6-0.1,6.6c0.7,0.8,1.5,1.5,2.2,2.2c2,1.9,4.7,1.8,6.7-0.2
		c9.4-9.4,18.9-18.9,28.3-28.3c1.9-1.9,2-4.7,0.1-6.7c-0.6-0.7-1.3-1.3-2-2c-2.1-2.1-4.9-2.1-7,0c-1,1-2,2-2.9,3
		c-16.2-16.2-32.2-32.2-48.4-48.4c1-1,2.1-2.1,3.2-3.2c1.9-2,1.9-4.7,0-6.7c-0.5-0.5-1-1-1.5-1.5c-2.7-2.7-5.2-2.7-7.8,0
		C83,44.2,73.9,53.3,64.8,62.5c-0.2,0.2-0.4,0.4-0.6,0.6c-1.8,2-1.8,4.5,0,6.5c0.6,0.7,1.3,1.3,1.9,1.9c2.3,2.3,5,2.3,7.2,0
		c1-1,1.9-2,2.8-2.9C82,74.5,87.9,80.3,93.9,86.4z"/>
	<path fill="#4F4F4F" d="M148.2,161.5c9.2,0,18.5,0,27.7,0c1.3,0,2.3,0.5,2.9,1.6c0.6,1.1,0.5,2.2-0.2,3.1c-0.5,0.8-1.3,1.2-2.3,1.2
		c-0.4,0-0.8,0-1.1,0c-18,0-35.9,0-53.9,0c-0.4,0-0.8,0-1.2-0.1c-1.7-0.2-2.8-1.5-2.8-3.1c0.1-1.6,1.4-2.8,3.1-2.9
		c1.2,0,2.5,0,3.7,0C132.2,161.5,140.2,161.5,148.2,161.5z"/>
	<path fill="#4F4F4F" d="M148.3,158.2c-7.2,0-14.4,0-21.6,0c-2.1,0-3.5-1.3-3.4-3.2c0.1-1.3,1-2.4,2.3-2.7c0.4-0.1,0.8-0.1,1.1-0.1
		c14.3,0,28.7,0,43,0c1.7,0,2.8,0.7,3.3,2c0.7,2-0.7,4-2.9,4c-1.9,0-3.8,0-5.6,0C159.1,158.2,153.7,158.2,148.3,158.2z"/>
</g>
</svg>
