<?xml version="1.0" encoding="utf-8"?>
<!-- Generator: Adobe Illustrator 18.1.0, SVG Export Plug-In . SVG Version: 6.00 Build 0)  -->
<!DOCTYPE svg PUBLIC "-//W3C//DTD SVG 1.1//EN" "http://www.w3.org/Graphics/SVG/1.1/DTD/svg11.dtd">
<svg version="1.1" id="Layer_1" xmlns="http://www.w3.org/2000/svg" xmlns:xlink="http://www.w3.org/1999/xlink" x="0px" y="0px"
	 viewBox="0 0 200 200" enable-background="new 0 0 200 200" xml:space="preserve">
<g>
	<path fill="#FFFFFF" d="M10.3,170.1c0-43.9,0-87.7,0-131.6c61.3,0,122.6,0,184,0c0,43.9,0,87.7,0,131.6
		C133,170.1,71.6,170.1,10.3,170.1z M100.5,43c0,0.2,0,0.4,0,0.6c-7.7,0-15.3-0.2-23,0c-12.9,0.5-25.8,1.1-38.8,1.9
		c-10.4,0.6-17.9,6.9-20.4,17c-1.8,7.3-2.6,14.8-2.8,22.3c-0.3,9.4-0.3,18.8-0.3,28.2c0,10.6,0.6,21.1,2.7,31.5
		c1.7,8.6,6.5,14.9,15,17.5c3.9,1.2,8.2,1.5,12.3,1.6c14.3,0.6,28.7,1.3,43,1.5c12.4,0.2,24.9,0,37.3-0.2c7.5-0.1,15-0.4,22.5-0.8
		c5.7-0.3,11.3-0.7,17-1.4c8.6-1,15.6-8,17.7-17.4c2-8.9,2.8-18,2.9-27c0.2-10.8,0.1-21.5-0.2-32.3c-0.2-7.9-1-15.7-2.7-23.4
		c-2-9.1-9.8-16.2-18.7-16.9c-5.4-0.4-10.8-1.1-16.2-1.3C132,43.9,116.3,43.5,100.5,43z"/>
	<path fill="#4F4F4F" d="M100.5,43c15.8,0.5,31.6,0.8,47.3,1.4c5.4,0.2,10.8,0.9,16.2,1.3c8.9,0.7,16.7,7.8,18.7,16.9
		c1.7,7.7,2.6,15.5,2.7,23.4c0.3,10.8,0.4,21.5,0.2,32.3c-0.2,9.1-0.9,18.1-2.9,27c-2.1,9.4-9.1,16.4-17.7,17.4
		c-5.6,0.7-11.3,1.1-17,1.4c-7.5,0.4-15,0.7-22.5,0.8c-12.4,0.2-24.9,0.4-37.3,0.2c-14.4-0.2-28.7-0.9-43-1.5
		c-4.1-0.2-8.4-0.5-12.3-1.6c-8.6-2.6-13.3-8.9-15-17.5c-2.1-10.4-2.7-20.9-2.7-31.5c0-9.4,0-18.8,0.3-28.2c0.2-7.5,1-15,2.8-22.3
		c2.5-10.1,10-16.4,20.4-17c12.9-0.8,25.8-1.4,38.8-1.9c7.7-0.3,15.3,0,23,0C100.5,43.4,100.5,43.2,100.5,43z M82.4,67.5
		c-3.7,0.2-6.3,2.9-6.3,6.9c0,10.6,0,21.1,0,31.7c0,9.4,0.1,18.9,0,28.3c-0.1,5.4,5.6,7.9,9.4,5.6c16.2-10.2,32.4-20.3,48.6-30.4
		c4.1-2.6,4.1-7.8,0-10.4c-16.1-10.1-32.3-20.2-48.5-30.3C84.6,68.2,83.4,67.9,82.4,67.5z"/>
	<path fill="#FFFFFF" d="M82.4,67.5c1.1,0.4,2.2,0.7,3.2,1.3c16.2,10.1,32.4,20.2,48.5,30.3c4.1,2.6,4.1,7.8,0,10.4
		c-16.2,10.2-32.4,20.3-48.6,30.4c-3.8,2.4-9.4-0.1-9.4-5.6c0.1-9.4,0-18.9,0-28.3c0-10.6,0-21.1,0-31.7
		C76.1,70.4,78.6,67.7,82.4,67.5z"/>
</g>
</svg>
