<?xml version="1.0" encoding="utf-8"?>
<!-- Generator: Adobe Illustrator 18.1.0, SVG Export Plug-In . SVG Version: 6.00 Build 0)  -->
<!DOCTYPE svg PUBLIC "-//W3C//DTD SVG 1.1//EN" "http://www.w3.org/Graphics/SVG/1.1/DTD/svg11.dtd">
<svg version="1.1" id="Layer_1" xmlns="http://www.w3.org/2000/svg" xmlns:xlink="http://www.w3.org/1999/xlink" x="0px" y="0px"
	 viewBox="0 0 200 200" enable-background="new 0 0 200 200" xml:space="preserve">
<g>
	<path fill="#FFFFFF" d="M26.6,181.7c0-50,0-100,0-150c54.7,0,109.3,0,163.9,0c0,50,0,100,0,150C135.9,181.7,81.2,181.7,26.6,181.7z
		 M89.4,40c-3.4,0.3-6.8,0.6-10.1,0.9c-4,0.3-8,0.7-12.1,1c-3.9,0.3-7.8,0.6-11.8,1c-1.9,0.2-3.9,0.3-5.7,0.8
		c-4.3,1.3-7,5.1-7.4,9.7c-0.3,4.5-0.8,9.1-1.2,13.6c-0.3,3.9-0.7,7.7-1,11.6c-0.3,3.9-0.7,7.7-1,11.6c-0.2,2.8-0.6,5.7-0.6,8.5
		c0,4.9,1.7,9.3,5.2,12.8c8.2,8.2,16.4,16.3,24.6,24.4c5.3,5.3,10.6,10.5,15.9,15.7c5.4,5.4,10.9,10.8,16.3,16.2
		c2.4,2.3,4.8,4.6,7.1,7c3.5,3.7,9.6,4.2,13.6,0c2.5-2.6,5.1-5,7.6-7.5c6.3-6.2,12.5-12.4,18.8-18.6c5.3-5.2,10.6-10.5,15.8-15.7
		c4.1-4.1,8.3-8.2,12.4-12.3c3.4-3.4,3.4-8.8,0-12.2c-10.4-10.4-20.8-20.7-31.2-31c-4.4-4.4-8.9-8.8-13.4-13.2
		c-6.2-6.1-12.4-12.2-18.5-18.3c-3.1-3.2-6.7-5.4-11.2-6.3c-1-0.2-2.1-0.3-2.9-0.4C95.5,39.5,92.4,39.8,89.4,40z"/>
	<path fill="#4F4F4F" d="M101.7,39.6c4.4,0.8,8,3.1,11.2,6.3c6.1,6.2,12.3,12.2,18.5,18.3c4.5,4.4,8.9,8.8,13.4,13.2
		c10.4,10.3,20.8,20.6,31.2,31c3.4,3.4,3.4,8.8,0,12.2c-4.1,4.1-8.2,8.2-12.4,12.3c-5.3,5.2-10.6,10.5-15.8,15.7
		c-6.3,6.2-12.5,12.4-18.8,18.6c-2.5,2.5-5.1,5-7.6,7.5c-4,4.2-10.1,3.7-13.6,0c-2.3-2.4-4.7-4.7-7.1-7
		c-5.5-5.4-10.9-10.8-16.3-16.2c-5.3-5.2-10.6-10.5-15.9-15.7c-8.2-8.1-16.4-16.3-24.6-24.4c-3.5-3.5-5.2-7.9-5.2-12.8
		c0-2.8,0.4-5.7,0.6-8.5c0.3-3.9,0.7-7.7,1-11.6c0.3-3.9,0.7-7.7,1-11.6c0.4-4.5,0.9-9.1,1.2-13.6c0.3-4.5,3.1-8.4,7.4-9.7
		c1.8-0.5,3.8-0.6,5.7-0.8c3.9-0.4,7.8-0.7,11.8-1c4-0.3,8-0.7,12.1-1c3.4-0.3,6.8-0.6,10.1-0.9c3.1-0.3,6.1-0.5,9.4-0.8
		C99.6,39.4,100.7,39.4,101.7,39.6z M47,108.9c8.9,8.8,17.8,17.7,26.7,26.5c3,2.9,5.9,5.9,8.9,8.8c7.7,7.6,15.4,15.2,23.1,22.9
		c1.8,1.8,3.6,3.5,5.4,5.3c1.9,1.8,4.8,1.9,6.7,0.1c1.6-1.5,3.1-3,4.6-4.5c6.8-6.8,13.6-13.5,20.5-20.3c5.2-5.1,10.3-10.2,15.5-15.4
		c4.8-4.8,9.6-9.5,14.4-14.4c1.9-1.9,1.9-4.7,0-6.5c-6.2-6.2-12.3-12.3-18.5-18.4c-2.7-2.7-5.5-5.4-8.2-8.2
		c-7.7-7.6-15.3-15.2-23-22.8c-4.7-4.7-9.5-9.3-14.1-14c-2.7-2.7-5.9-4.3-9.7-4.5c-2.2-0.1-4.5,0.2-6.7,0.4c-4,0.3-8,0.7-12,1
		c-3.9,0.3-7.9,0.7-11.8,1c-3.3,0.3-6.6,0.6-9.9,0.8c-2.4,0.2-4.7,0.4-7.1,0.7c-2.4,0.3-4.8,2.8-5,5.2c-0.4,4.6-0.8,9.1-1.2,13.7
		c-0.4,5-0.9,10.1-1.3,15.1c-0.5,5.9-1,11.7-1.5,17.6C43,102.7,44.3,106.1,47,108.9z"/>
	<path fill="#FFFFFF" d="M44.2,81.4c0.4-5,0.9-10.1,1.3-15.1c0.4-4.6,0.8-9.1,1.2-13.7c0.2-2.4,2.7-4.9,5-5.2
		c2.4-0.3,4.7-0.4,7.1-0.7c3.3-0.3,6.6-0.6,9.9-0.8c3.9-0.3,7.9-0.7,11.8-1c4-0.3,8-0.7,12-1c2.2-0.2,4.5-0.5,6.7-0.4
		c3.8,0.2,7,1.8,9.7,4.5c4.7,4.7,9.4,9.3,14.1,14c7.7,7.6,15.3,15.2,23,22.8c2.7,2.7,5.5,5.4,8.2,8.2c6.2,6.1,12.4,12.3,18.5,18.4
		c1.9,1.9,1.8,4.7,0,6.5c-4.8,4.8-9.6,9.6-14.4,14.4c-5.2,5.1-10.3,10.2-15.5,15.4c-6.8,6.8-13.6,13.5-20.5,20.3
		c-1.5,1.5-3,3.1-4.6,4.5c-2,1.8-4.8,1.7-6.7-0.1c-1.8-1.7-3.6-3.5-5.4-5.3c-7.7-7.6-15.4-15.2-23.1-22.9c-3-2.9-5.9-5.9-8.9-8.8
		c-8.9-8.8-17.8-17.7-26.7-26.5c-2.8-2.7-4-6.1-4.4-9.8C43.2,93.1,43.7,87.2,44.2,81.4z M74.6,65.8c0-4.6-3.7-8.3-8.2-8.3
		c-4.8,0-8.5,3.6-8.5,8.3c0,4.6,3.7,8.2,8.4,8.2C71,74,74.6,70.4,74.6,65.8z"/>
	<path fill="#4F4F4F" d="M60.4,68c4.6,0,8.2-3.7,8.2-8.2c0-4.6-3.7-8.3-8.2-8.3c-4.8,0-8.5,3.6-8.5,8.3C52,64.4,55.7,68,60.4,68z"/>
	<path fill="#FFFFFF" d="M60.3,64.4c2.5,0,4.6-2,4.6-4.6c0-2.5-2-4.6-4.6-4.6c-2.7,0-4.7,2-4.7,4.6C55.7,62.4,57.7,64.4,60.3,64.4z"
		/>
</g>
</svg>
