<?xml version="1.0" encoding="utf-8"?>
<!-- Generator: Adobe Illustrator 18.1.0, SVG Export Plug-In . SVG Version: 6.00 Build 0)  -->
<!DOCTYPE svg PUBLIC "-//W3C//DTD SVG 1.1//EN" "http://www.w3.org/Graphics/SVG/1.1/DTD/svg11.dtd">
<svg version="1.1" id="Layer_1" xmlns="http://www.w3.org/2000/svg" xmlns:xlink="http://www.w3.org/1999/xlink" x="0px" y="0px"
	 viewBox="0 0 200 200" enable-background="new 0 0 200 200" xml:space="preserve">
<g>
	<path fill="#FFFFFF" d="M8.4,184.1c0-52.8,0-105.6,0-158.4c61.7,0,123.4,0,185,0c0,52.8,0,105.6,0,158.4
		C131.8,184.1,70.1,184.1,8.4,184.1z M47.4,35c-6.2,0-12.5,0-18.7,0c-7.3,0-12.2,5-12.3,12.3c0,12.2-0.1,24.3,0,36.5
		c0.1,7.8,3,14.6,8.3,20.2c4.5,4.7,9.2,9.3,13.9,14c13.3,13.3,26.7,26.7,40,40c3.4,3.4,6.8,6.9,10.2,10.3c2,2,4.4,3.4,7.3,3.7
		c4,0.4,7.4-1.1,10.2-3.9c5.8-5.8,11.5-11.6,17.3-17.3c8.5-8.5,17.1-17,25.6-25.6c1.4-1.5,2.8-3.3,3.5-5.2c1.8-4.8,0.5-9.1-3.1-12.7
		c-4.6-4.7-9.3-9.3-14-13.9C119.4,77,103,60.6,86.6,44.3C80.5,38.2,73.1,35,64.4,35C58.7,35,53.1,35,47.4,35z M82.8,34.7
		c0,0.1,0,0.3,0.1,0.4c6.8,1.2,12.9,3.8,17.9,8.7c21.2,21.2,42.4,42.3,63.6,63.5c2,2,3.4,4.4,3.7,7.3c0.4,4.2-1.2,7.6-4.1,10.5
		c-13.5,13.4-26.9,26.9-40.3,40.3c-0.4,0.4-0.8,0.8-1.2,1.3c2.6,2.7,5.2,5.1,9.1,5.3c3.9,0.2,7.1-1.2,9.9-4
		c5.7-5.7,11.4-11.4,17.1-17.1c8.6-8.6,17.2-17.1,25.7-25.7c1.5-1.5,2.9-3.3,3.6-5.3c1.8-4.8,0.4-9.1-3.2-12.7
		c-4.8-4.9-9.7-9.7-14.6-14.5c-16.2-16.2-32.4-32.3-48.5-48.5c-4.6-4.6-10-7.8-16.4-8.6C97.6,34.8,90.2,35,82.8,34.7z"/>
	<path fill="#4F4F4F" d="M47.4,35c5.6,0,11.3,0,16.9,0c8.7,0,16.1,3.2,22.2,9.3C103,60.6,119.4,77,135.8,93.4
		c4.6,4.6,9.3,9.2,14,13.9c3.6,3.6,4.9,7.9,3.1,12.7c-0.7,1.9-2.1,3.7-3.5,5.2c-8.5,8.6-17,17.1-25.6,25.6
		c-5.8,5.8-11.5,11.6-17.3,17.3c-2.8,2.8-6.1,4.2-10.2,3.9c-2.9-0.3-5.3-1.7-7.3-3.7c-3.4-3.4-6.8-6.9-10.2-10.3
		c-13.3-13.3-26.7-26.7-40-40c-4.6-4.6-9.3-9.2-13.9-14c-5.4-5.6-8.2-12.5-8.3-20.2c-0.2-12.2-0.1-24.3,0-36.5
		c0-7.3,5-12.3,12.3-12.3C35,35,41.2,35,47.4,35z M57.1,63.9c0-6.3-5.2-11.4-11.5-11.5c-6.4-0.1-11.6,5.2-11.7,11.5
		c0,6.4,5.1,11.6,11.5,11.7C51.8,75.6,57.1,70.3,57.1,63.9z"/>
	<path fill="#4F4F4F" d="M82.8,34.7c7.4,0.3,14.9,0.1,22.2,0.9c6.3,0.7,11.8,4,16.4,8.6c16.2,16.2,32.3,32.4,48.5,48.5
		c4.8,4.8,9.7,9.7,14.6,14.5c3.6,3.6,5,7.9,3.2,12.7c-0.7,2-2.1,3.8-3.6,5.3c-8.5,8.6-17.1,17.2-25.7,25.7
		c-5.7,5.7-11.4,11.4-17.1,17.1c-2.7,2.7-5.9,4.1-9.9,4c-4-0.2-6.5-2.6-9.1-5.3c0.4-0.5,0.8-0.9,1.2-1.3
		c13.4-13.4,26.9-26.9,40.3-40.3c2.9-2.9,4.6-6.2,4.1-10.5c-0.3-2.9-1.7-5.3-3.7-7.3c-21.2-21.2-42.4-42.4-63.6-63.5
		c-4.9-4.9-11.1-7.5-17.9-8.7C82.8,35,82.8,34.9,82.8,34.7z"/>
	<path fill="#FFFFFF" d="M57.1,63.9c0,6.5-5.3,11.7-11.7,11.7c-6.4-0.1-11.5-5.3-11.5-11.7c0-6.3,5.3-11.6,11.7-11.5
		C51.9,52.4,57.1,57.6,57.1,63.9z"/>
</g>
</svg>
