<?xml version="1.0" encoding="utf-8"?>
<!-- Generator: Adobe Illustrator 18.1.0, SVG Export Plug-In . SVG Version: 6.00 Build 0)  -->
<!DOCTYPE svg PUBLIC "-//W3C//DTD SVG 1.1//EN" "http://www.w3.org/Graphics/SVG/1.1/DTD/svg11.dtd">
<svg version="1.1" id="Layer_1" xmlns="http://www.w3.org/2000/svg" xmlns:xlink="http://www.w3.org/1999/xlink" x="0px" y="0px"
	 viewBox="0 0 200 200" enable-background="new 0 0 200 200" xml:space="preserve">
<g>
	<path fill="#4F4F4F" d="M101.1,175.3c-41,0-74.2-32.9-75.2-73.1c-1.1-42.4,32.6-76.5,73.5-77.3c42.1-0.9,76.8,32.8,76.9,75
		C176.3,142,142.1,175.2,101.1,175.3z M168.5,100.1c0.1-37.2-30.6-68.3-69-67.5c-36.8,0.7-66.7,31.2-66,68.8
		c0.7,35.6,29.6,66.1,67.5,66.1C139.2,167.5,168.5,136.6,168.5,100.1z"/>
	<path fill="#4F4F4F" d="M148.9,99.9c0,26.6-21.4,48-48,48c-26.2,0-47.8-21.6-47.7-47.9c0-26.4,21.5-47.9,47.9-47.8
		C127.4,52.2,148.9,73.7,148.9,99.9z M141.1,100.1c0-22.1-17.9-40.2-39.9-40.2c-22.2,0-40.3,17.9-40.4,39.8
		c0,22.8,18,40.1,39.5,40.4C123,140.5,141.2,122.2,141.1,100.1z"/>
	<path fill="#4F4F4F" d="M101.1,79.3c11.5,0,20.7,9.2,20.7,20.7c0,11.3-9.5,20.8-20.8,20.8c-11.4,0-20.7-9.4-20.7-20.9
		C80.3,88.6,89.6,79.3,101.1,79.3z M101,113c7.1,0,13-5.8,13-12.9S108,87,101,87c-7.2,0-13,5.9-13,13.1C88.1,107.3,93.9,113,101,113
		z"/>
</g>
</svg>
