<?xml version="1.0" encoding="utf-8"?>
<!-- Generator: Adobe Illustrator 18.1.0, SVG Export Plug-In . SVG Version: 6.00 Build 0)  -->
<!DOCTYPE svg PUBLIC "-//W3C//DTD SVG 1.1//EN" "http://www.w3.org/Graphics/SVG/1.1/DTD/svg11.dtd">
<svg version="1.1" id="Layer_1" xmlns="http://www.w3.org/2000/svg" xmlns:xlink="http://www.w3.org/1999/xlink" x="0px" y="0px"
	 viewBox="0 0 200 200" enable-background="new 0 0 200 200" xml:space="preserve">
<g>
	<path fill="#4F4F4F" d="M128,75.4c5,0,9.8,0.1,14.7,0c6.2-0.1,12.3-0.6,18.4,1.2c2.7,0.8,5.1,2,6.9,4.3c1.1,1.5,1.7,3.1,1.7,4.9
		c0,1.5,0,3-0.2,4.4c-0.3,2.5-1,4.9-2.9,6.8c2.6,2.9,3.4,6.4,3.1,10.1c-0.2,3.9-1.9,6.9-5.3,8.8c4,6.5,2.1,12.7-4.8,16.1
		c0.8,1.7,1.8,3.4,2.2,5.1c1.5,6.4-1.6,11.3-8,12.5c-4.7,0.9-9.6,1.2-14.4,1.4c-6.3,0.2-12.7,0.2-19.1-0.1
		c-7.3-0.3-14.6-0.9-21.9-1.5c-1-0.1-2.1-0.4-3.1-0.7c-5.7-2.1-11.5-4.2-17.2-6.3c-4-1.5-4.6-2.2-4.5-6.6c0.2-6.7,0.7-13.4,0.8-20.1
		c0.1-5.2-0.3-10.4-0.5-15.5c-0.1-3.1-0.2-6.3-0.3-9.4c0-0.7-0.2-1.4-0.3-2.1c-0.1-1.6-0.2-3.1-0.1-4.7c0.1-1.2,1.4-2.1,2.7-2.1
		c2.1,0,4.2,0.1,6.2,0.3c2.6,0.2,4.6-0.6,6.1-2.7c2.1-3,4.2-5.9,6.1-9c2.5-4.1,4.8-8.4,7.4-12.5c2-3.2,2.4-6.6,2.2-10.2
		c-0.2-3.4-0.3-6.8-0.3-10.2c0.1-4.7,3.3-7.7,8-7.8c8.9-0.2,15.8,5.1,18.6,13.9c2.3,7.4,2.2,14.8,0,22.2c-0.8,2.7-1.3,5.5-1.9,8.3
		C128,74.6,128,75.1,128,75.4z M78.7,87.7c0.1,0.9,0.3,1.9,0.3,2.8c0.1,4.2,0.1,8.4,0.4,12.6c0.5,8.4,0.5,16.7-0.2,25.1
		c-0.2,2.4-0.2,4.8-0.3,7.3c0,1.1,0.3,1.7,1.4,2c5.2,1.8,10.3,3.8,15.5,5.6c1.4,0.5,3,1.1,4.5,1.2c8,0.5,16,1.1,24,1.3
		s16,0.4,24-0.6c1.9-0.3,3.8-0.6,5.6-1.1c1.3-0.3,2.2-1.3,2.5-2.7c0.6-2.8-0.8-5.5-3.5-6.5c-1.3-0.5-2.6-0.8-3.9-1.1
		c-1.5-0.5-2.4-1.6-2.2-3c0.2-1.5,1.2-2.4,2.9-2.5c1.2-0.1,2.5-0.1,3.7-0.3c1.6-0.3,3.3-0.6,4.8-1.3c2.1-0.9,2.6-2.9,2.5-4.9
		c-0.1-1.9-1.6-2.7-3.2-3.1c-1.6-0.4-3.2-0.6-4.8-0.9c-1.6-0.2-2.8-1.4-2.7-2.9s1.3-2.5,2.9-2.5c1.6,0,3.1,0.1,4.7-0.1
		c5-0.4,6.6-2.2,6.3-7.1v-0.1c-0.2-3-1.9-4.9-4.9-5.3c-0.8-0.1-1.7,0-2.5,0c-1.5,0.1-2.9-0.9-3.1-2.2c-0.2-1.6,0.6-2.8,2.2-3.2
		c0.4-0.1,0.8-0.2,1.2-0.2c1.4-0.2,2.7-0.3,4.1-0.4c1.7-0.2,2.2-0.6,2.5-2.2s0.4-3.3,0.5-4.9c0.1-1.2-0.4-2.3-1.4-2.8
		c-1.6-0.8-3.3-1.6-5.1-2c-4.1-1-8.3-0.8-12.5-0.6c-6.2,0.2-12.5,0.3-18.7,0.5c-1.9,0-3-0.7-3.5-2.5c-0.3-1.1-0.5-2.4-0.3-3.6
		c0.6-3.7,1.2-7.4,2.3-11c1.9-6.5,2.1-13-0.2-19.4c-2.1-6-5.8-9.2-12.5-9.6c-2.4-0.1-3.2,0.7-3.2,3.1c0,2.8,0.1,5.5,0.3,8.3
		c0.4,4.9-0.1,9.7-2.8,14c-0.8,1.2-1.4,2.5-2.1,3.8C100.7,70.6,97,77,92.6,82.8c-2.6,3.3-5.8,5.2-10.1,5
		C81.2,87.6,80,87.7,78.7,87.7z"/>
	<path fill="#4F4F4F" d="M66.5,137.8c0,3.2,0,6.3,0,9.5c0,1.5-0.9,2.6-2.4,2.9c-2.4,0.4-4.8,0.9-7.2,1c-3.5,0.2-6.9,0.1-10.4,0
		c-1.5,0-2.3-0.8-2.6-2.4c-2.4-10.7-5-21.3-7.1-32c-2-10-3.4-20.2-5.1-30.3c-0.5-3-1-6-1.5-9c-0.5-2.7,0.6-4.1,3.4-4
		c3.8,0.2,7.5,0.6,11.3,0.7c4.7,0.2,9.5,0.1,14.2,0.2c1.6,0,3.3,0,4.9,0c2.1,0,3.2,1,3.2,3.1c0,4.2,0,8.3-0.1,12.5
		c-0.1,7.8-0.2,15.6-0.4,23.4c-0.1,4.8-0.2,9.5-0.3,14.3c0,3.4,0,6.8,0,10.2C66.3,137.8,66.4,137.8,66.5,137.8z M60.6,144.9
		c0.3-21.7,0.6-43.3,0.9-64.9c-8.7-0.3-17.1-0.5-25.5-0.8c0.7,4.5,1.4,9.1,2.1,13.6c0.8,4.7,1.8,9.3,2.5,13.9
		c1.8,13,4.9,25.6,8,38.3c0.1,0.3,0.4,0.7,0.7,0.7C53.2,146,57,146,60.6,144.9z"/>
</g>
</svg>
