<?xml version="1.0" encoding="utf-8"?>
<!-- Generator: Adobe Illustrator 18.1.0, SVG Export Plug-In . SVG Version: 6.00 Build 0)  -->
<!DOCTYPE svg PUBLIC "-//W3C//DTD SVG 1.1//EN" "http://www.w3.org/Graphics/SVG/1.1/DTD/svg11.dtd">
<svg version="1.1" id="Layer_1" xmlns="http://www.w3.org/2000/svg" xmlns:xlink="http://www.w3.org/1999/xlink" x="0px" y="0px"
	 viewBox="0 0 200 200" enable-background="new 0 0 200 200" xml:space="preserve">
<g>
	<path fill="#FFFFFF" d="M14.9,189c0-58.4,0-116.8,0-175.2c57,0,114.1,0,171.2,0c0,58.4,0,116.8,0,175.2C129,189,72,189,14.9,189z
		 M137.4,67.3c0.1-0.4,0.1-0.5,0.1-0.6c0.2-0.5,0.4-0.9,0.6-1.3c2.6-6,4.2-12.2,4-18.8c-0.1-6.2-0.8-12.3-3.7-18
		c-5.3-10.6-17.4-14-27.2-13.3c-5.7,0.4-9.2,4.3-11.7,9.1c-2.8,5.3-3.8,11.2-5.1,16.9c-0.9,3.8-1.6,7.5-4.2,10.6
		c-4,4.6-7.8,9.4-11.7,14c-3.6,4.2-7.2,8.4-10.8,12.6c-1.2,1.4-2.5,1.9-4.4,1.9c-8.3-0.1-16.6-0.1-25,0c-8.2,0-13.7,5.5-13.8,13.7
		c0,21.3,0,42.6,0,63.9c0,1.3,0.1,2.7,0.5,4c1.6,6,6.6,9.7,13.1,9.7c9.2,0,18.5,0,27.7,0c1.3,0,2.6,0.1,3.8,0.5
		c4.4,1.3,8.8,2.9,13.2,4.2c8.4,2.4,16.7,5.2,25.2,7c10.9,2.3,22,1.9,33,1c8.6-0.7,15.8-4.5,21-11.6c3.4-4.7,4.9-10,5.2-15.7
		c0.1-1.2,0-2.6,0.6-3.4c4.5-6.3,6.1-13.2,5.5-20.8c-0.1-0.8,0.1-1.7,0.4-2.3c2.7-5.2,3.9-10.8,3-16.5c-0.5-3.2,0.4-5.5,1.6-8.2
		c3.4-7.3,4.1-15,0.6-22.4c-5-10.6-13.4-16.2-25.4-16C148.3,67.4,142.9,67.3,137.4,67.3z"/>
	<path fill="#4F4F4F" d="M137.4,67.3c5.5,0,11,0.1,16.4,0c11.9-0.1,20.4,5.4,25.4,16c3.5,7.4,2.7,15.1-0.6,22.4
		c-1.2,2.7-2.2,5-1.6,8.2c1,5.7-0.3,11.3-3,16.5c-0.4,0.7-0.5,1.6-0.4,2.3c0.6,7.6-1,14.5-5.5,20.8c-0.6,0.9-0.5,2.3-0.6,3.4
		c-0.4,5.7-1.8,11-5.2,15.7c-5.2,7.1-12.4,10.9-21,11.6c-11,0.9-22.1,1.3-33-1c-8.5-1.8-16.8-4.5-25.2-7c-4.4-1.3-8.8-2.8-13.2-4.2
		c-1.2-0.4-2.6-0.5-3.8-0.5c-9.2,0-18.5,0-27.7,0c-6.5,0-11.5-3.7-13.1-9.7c-0.3-1.3-0.5-2.7-0.5-4c0-21.3,0-42.6,0-63.9
		c0-8.2,5.6-13.7,13.8-13.7c8.3,0,16.6-0.1,25,0c1.9,0,3.3-0.5,4.4-1.9c3.6-4.2,7.2-8.4,10.8-12.6c3.9-4.7,7.7-9.4,11.7-14
		c2.7-3.1,3.4-6.8,4.2-10.6c1.3-5.8,2.2-11.6,5.1-16.9c2.5-4.7,6-8.6,11.7-9.1c9.8-0.7,21.9,2.7,27.2,13.3c2.8,5.7,3.5,11.8,3.7,18
		c0.1,6.6-1.4,12.8-4,18.8c-0.2,0.4-0.4,0.9-0.6,1.3C137.4,66.9,137.4,67,137.4,67.3z M119.1,80.4c0.2-1.5,0.2-2.9,0.6-4
		c1.8-4.9,3.5-9.9,5.6-14.7c3.1-7,4.6-14.2,3-21.9c-1.1-5.2-3.3-9.5-9-10.8c-1.8-0.4-3.8-0.6-5.6-0.7c-0.5,0-1.4,0.3-1.6,0.7
		c-1.1,2.2-2.3,4.3-3,6.6c-1.3,4.4-2.2,8.9-3.3,13.4c-1.1,4.3-3,8.1-5.9,11.5c-4.3,5-8.4,10.1-12.5,15.3c-3.8,4.8-7.7,9.6-12.3,13.6
		c-3,2.6-6.2,4.4-10.3,4.1c-0.3,0-0.7,0.1-1,0.1c0,21.7,0,43.4,0,65c1.8,0.1,3.6-0.1,5.3,0.3c5.1,1.3,10.3,2.4,15.2,4.3
		c16.4,6.1,33.1,9.8,50.7,8.6c2.3-0.2,4.6-0.3,6.8-0.7c6.9-1.3,11.2-5.4,12.2-12c0.5-2.9,0.1-5.9,0.1-8.9c0-0.5,0.2-1.3,0.6-1.6
		c2.6-1.8,4-4.4,5-7.3c1.4-4.2,1.1-8.2-0.9-12.1c6.7-6.7,6.7-15.3,2.2-22.3c1.2-0.9,2.6-1.6,3.5-2.8c2.4-3.3,3.9-7.1,3.7-11.2
		c-0.3-7-6.3-12.4-13.4-12.5c-9.5,0-19,0-28.5,0C123.9,80.4,121.7,80.4,119.1,80.4z M50.7,152.1c0-3.5-2.9-6.5-6.4-6.5
		c-3.5-0.1-6.6,2.9-6.6,6.4c0,3.5,2.9,6.6,6.5,6.6C47.7,158.7,50.7,155.7,50.7,152.1z"/>
	<path fill="#FFFFFF" d="M119.1,80.4c2.5,0,4.8,0,7,0c9.5,0,19,0,28.5,0c7.1,0,13.1,5.5,13.4,12.5c0.2,4.2-1.3,7.9-3.7,11.2
		c-0.8,1.1-2.3,1.8-3.5,2.8c4.5,7,4.5,15.6-2.2,22.3c2,3.8,2.3,7.9,0.9,12.1c-0.9,2.9-2.4,5.5-5,7.3c-0.4,0.3-0.6,1-0.6,1.6
		c-0.1,3,0.3,6-0.1,8.9c-1.1,6.7-5.3,10.7-12.2,12c-2.2,0.4-4.5,0.5-6.8,0.7c-17.6,1.2-34.3-2.5-50.7-8.6c-4.9-1.8-10.1-3-15.2-4.3
		c-1.6-0.4-3.4-0.2-5.3-0.3c0-21.7,0-43.3,0-65c0.3,0,0.7-0.2,1-0.1c4.1,0.4,7.3-1.5,10.3-4.1c4.7-4,8.5-8.8,12.3-13.6
		c4.1-5.1,8.2-10.3,12.5-15.3c2.9-3.4,4.8-7.2,5.9-11.5c1.1-4.5,2-9,3.3-13.4c0.7-2.3,1.9-4.5,3-6.6c0.2-0.4,1.1-0.8,1.6-0.7
		c1.9,0.1,3.8,0.3,5.6,0.7c5.7,1.3,7.9,5.6,9,10.8c1.6,7.7,0,14.8-3,21.9c-2.1,4.8-3.8,9.8-5.6,14.7
		C119.3,77.5,119.4,78.9,119.1,80.4z"/>
	<path fill="#FFFFFF" d="M50.7,152.1c0,3.6-3,6.6-6.6,6.5c-3.5,0-6.5-3.1-6.5-6.6c0-3.5,3.1-6.5,6.6-6.4
		C47.8,145.7,50.7,148.7,50.7,152.1z"/>
</g>
</svg>
