<?xml version="1.0" encoding="utf-8"?>
<!-- Generator: Adobe Illustrator 16.0.0, SVG Export Plug-In . SVG Version: 6.00 Build 0)  -->
<!DOCTYPE svg PUBLIC "-//W3C//DTD SVG 1.1//EN" "http://www.w3.org/Graphics/SVG/1.1/DTD/svg11.dtd">
<svg version="1.1" id="Layer_1" xmlns="http://www.w3.org/2000/svg" xmlns:xlink="http://www.w3.org/1999/xlink" x="0px" y="0px"
	 width="100px" height="100px" viewBox="0 0 100 100" enable-background="new 0 0 100 100" xml:space="preserve">
<g>
	<path fill="#333333" d="M67.551,42H63V27.699c0-7.084-5.912-12.844-13-12.844s-13,5.76-13,12.844V42h-3.879
		C30.71,42,28,43.038,28,45.474v34.87C28,82.779,30.71,86,33.121,86h34.43C69.953,86,72,82.779,72,80.344v-34.87
		C72,43.038,69.953,42,67.551,42z M57,42H43V27.699c0-3.938,3.059-7.144,7-7.144c3.934,0,7,3.206,7,7.144V42z"/>
</g>
</svg>
