<?xml version="1.0" encoding="utf-8"?>
<!-- Generator: Adobe Illustrator 16.0.0, SVG Export Plug-In . SVG Version: 6.00 Build 0)  -->
<!DOCTYPE svg PUBLIC "-//W3C//DTD SVG 1.1//EN" "http://www.w3.org/Graphics/SVG/1.1/DTD/svg11.dtd">
<svg version="1.1" id="Layer_1" xmlns="http://www.w3.org/2000/svg" xmlns:xlink="http://www.w3.org/1999/xlink" x="0px" y="0px"
	 width="100px" height="100px" viewBox="0 0 100 100" enable-background="new 0 0 100 100" xml:space="preserve">
<g>
	<path fill="#333333" d="M50,38.457c-2.73,0-5,2.221-5,4.948V53h10v-9.595C55,40.678,52.725,38.457,50,38.457z"/>
	<path fill="#333333" d="M77,23V5H59v18H41V5H23v18H11v72h78V23H77z M65,79.874C65,81.562,63.591,83,61.927,83H38.076
		C36.406,83,35,81.562,35,79.874V55.719C35,54.031,36.406,53,38.076,53H41v-9.595c0-4.907,4.09-8.897,9-8.897s9,3.99,9,8.897V53
		h2.927C63.591,53,65,54.031,65,55.719V79.874z"/>
</g>
</svg>
