<?xml version="1.0" encoding="utf-8"?>
<!-- Generator: Adobe Illustrator 16.0.0, SVG Export Plug-In . SVG Version: 6.00 Build 0)  -->
<!DOCTYPE svg PUBLIC "-//W3C//DTD SVG 1.1//EN" "http://www.w3.org/Graphics/SVG/1.1/DTD/svg11.dtd">
<svg version="1.1" id="Layer_1" xmlns="http://www.w3.org/2000/svg" xmlns:xlink="http://www.w3.org/1999/xlink" x="0px" y="0px"
	 width="100px" height="100px" viewBox="0 0 100 100" enable-background="new 0 0 100 100" xml:space="preserve">
<g>
	<path fill="#333333" d="M70,77.223C70,81.516,62.891,85,50,85c-12.891,0-20-3.484-20-7.777V64.58c0,4.293,7.109,7.779,20,7.779
		c12.891,0,20-3.486,20-7.779V77.223z"/>
	<path fill="#333333" d="M70,54.859c0,4.293-7.109,7.777-20,7.777c-12.891,0-20-3.484-20-7.777V42.22c0,4.297,7.109,7.777,20,7.777
		c12.891,0,20-3.48,20-7.777V54.859z"/>
	<path fill="#333333" d="M70,32.501c0,4.29-7.109,7.778-20,7.778c-12.891,0-20-3.488-20-7.778v-9.724C30,18.48,37.109,15,50,15
		c12.891,0,20,3.48,20,7.777V32.501z"/>
</g>
</svg>
