<?xml version="1.0" encoding="utf-8"?>
<!-- Generator: Adobe Illustrator 16.0.0, SVG Export Plug-In . SVG Version: 6.00 Build 0)  -->
<!DOCTYPE svg PUBLIC "-//W3C//DTD SVG 1.1//EN" "http://www.w3.org/Graphics/SVG/1.1/DTD/svg11.dtd">
<svg version="1.1" id="Layer_1" xmlns="http://www.w3.org/2000/svg" xmlns:xlink="http://www.w3.org/1999/xlink" x="0px" y="0px"
	 width="100px" height="100px" viewBox="0 0 100 100" enable-background="new 0 0 100 100" xml:space="preserve">
<g>
	<path fill="#333333" d="M77,23V5H59v18H41V5H23v18H11v72h78V23H77z M62,76.766c0,2.539-4.377,4.601-12,4.601s-12-2.062-12-4.601
		v-7.477c0,2.539,4.377,4.602,12,4.602s12-2.062,12-4.602V76.766z M62,63.541c0,2.539-4.377,4.6-12,4.6s-12-2.061-12-4.6v-7.475
		c0,2.541,4.377,4.6,12,4.6s12-2.059,12-4.6V63.541z M62,50.319c0,2.537-4.377,4.599-12,4.599s-12-2.062-12-4.599v-5.75
		c0-2.541,4.377-4.6,12-4.6s12,2.059,12,4.6V50.319z"/>
</g>
</svg>
