<?xml version="1.0" encoding="utf-8"?>
<!-- Generator: Adobe Illustrator 16.0.0, SVG Export Plug-In . SVG Version: 6.00 Build 0)  -->
<!DOCTYPE svg PUBLIC "-//W3C//DTD SVG 1.1//EN" "http://www.w3.org/Graphics/SVG/1.1/DTD/svg11.dtd">
<svg version="1.1" id="Layer_1" xmlns="http://www.w3.org/2000/svg" xmlns:xlink="http://www.w3.org/1999/xlink" x="0px" y="0px"
	 width="100px" height="100px" viewBox="0 0 100 100" enable-background="new 0 0 100 100" xml:space="preserve">
<g>
	<path fill="#333333" d="M83.204,50.183H36.523c-1.121,0-1.895,0.132-2.32,0.381c-0.419,0.25-0.853,0.817-1.299,1.697L19.801,78.04
		h51.744l12.811-25.681C84.782,51.436,85,50.911,85,50.786C84.938,50.388,84.338,50.183,83.204,50.183z"/>
	<path fill="#333333" d="M29.549,39.553c0.502-0.292,1.805-0.437,3.907-0.437h33.667v-6.644c0-1.485-0.721-2.235-2.17-2.235H52.586
		c-1.812,0-2.928-0.103-3.351-0.308c-0.428-0.218-0.773-3.454-1.044-4.561l-0.348-1.324c-0.248-0.943-0.532-1.525-0.853-1.752
		c-0.315-0.218-1.027-0.333-2.125-0.333H26.423c-1.226,0-2.062,0.115-2.479,0.351c-0.427,0.249-0.756,0.791-0.986,1.617
		l-0.348,3.917c-0.307,1.089-0.648,1.772-1.027,2.021c-0.377,0.247-1.213,0.373-2.502,0.373h-1.794c-0.926,0-1.54,0.15-1.838,0.426
		C15.151,30.943,15,31.534,15,32.436v34.419L27.438,42.62C28.345,40.859,29.051,39.829,29.549,39.553z"/>
</g>
</svg>
