<?xml version="1.0" encoding="utf-8"?>
<!-- Generator: Adobe Illustrator 16.0.0, SVG Export Plug-In . SVG Version: 6.00 Build 0)  -->
<!DOCTYPE svg PUBLIC "-//W3C//DTD SVG 1.1//EN" "http://www.w3.org/Graphics/SVG/1.1/DTD/svg11.dtd">
<svg version="1.1" id="Layer_1" xmlns="http://www.w3.org/2000/svg" xmlns:xlink="http://www.w3.org/1999/xlink" x="0px" y="0px"
	 width="100px" height="100px" viewBox="0 0 100 100" enable-background="new 0 0 100 100" xml:space="preserve">
<g>
	<path fill="#333333" d="M77,23V5H59v18H41V5H23v18H11v72h78V23H77z M26.666,47h1.154c0.876,0,1.447-0.009,1.708-0.182
		c0.255-0.167,0.492-0.603,0.703-1.353l0.243-2.681c0.158-0.568,0.378-1.158,0.665-1.328C31.433,41.293,31.998,41,32.845,41h12.63
		c0.753,0,1.236,0.305,1.456,0.454c0.223,0.155,0.416,0.671,0.583,1.316l0.24,0.97c0.188,0.762,0.425,2.95,0.712,3.099
		C48.759,46.977,49.523,47,50.764,47h8.741C60.501,47,62,47.668,62,48.694V53H37.658c-1.438,0-2.329,0.15-2.675,0.352
		c-0.34,0.193-0.332,0.926-0.959,2.14L26,72.025V49v-1C26,48,25.604,46.953,26.666,47z M40,59h31.666c0,0,1.094-0.094,0.857,0.369
		L63.75,77H27.999l9.667-17.999"/>
</g>
</svg>
