<?xml version="1.0" encoding="utf-8"?>
<!-- Generator: Adobe Illustrator 16.0.0, SVG Export Plug-In . SVG Version: 6.00 Build 0)  -->
<!DOCTYPE svg PUBLIC "-//W3C//DTD SVG 1.1//EN" "http://www.w3.org/Graphics/SVG/1.1/DTD/svg11.dtd">
<svg version="1.1" id="Layer_1" xmlns="http://www.w3.org/2000/svg" xmlns:xlink="http://www.w3.org/1999/xlink" x="0px" y="0px"
	 width="100px" height="100px" viewBox="0 0 100 100" enable-background="new 0 0 100 100" xml:space="preserve">
<g>
	<path fill="#333333" d="M50.369,49.047c-6.498,0-11.769,5.27-11.769,11.777c0,6.5,5.271,11.768,11.769,11.768
		c6.51,0,11.777-5.268,11.777-11.768C62.146,54.316,56.879,49.047,50.369,49.047z M50.369,66.791c-3.29,0-5.959-2.678-5.959-5.967
		c0-3.297,2.669-5.963,5.959-5.963c3.296,0,5.974,2.666,5.974,5.963C56.343,64.113,53.665,66.791,50.369,66.791z"/>
	<path fill="#333333" d="M77,23V5H59v18H41V5H23v18H11v72h78V23H77z M22.64,60.637c0,0,24.882-33.852,55.467,0
		C78.107,60.637,53.23,95.303,22.64,60.637z"/>
</g>
</svg>
