<?xml version="1.0" encoding="utf-8"?>
<!-- Generator: Adobe Illustrator 16.0.0, SVG Export Plug-In . SVG Version: 6.00 Build 0)  -->
<!DOCTYPE svg PUBLIC "-//W3C//DTD SVG 1.1//EN" "http://www.w3.org/Graphics/SVG/1.1/DTD/svg11.dtd">
<svg version="1.1" id="Layer_1" xmlns="http://www.w3.org/2000/svg" xmlns:xlink="http://www.w3.org/1999/xlink" x="0px" y="0px"
	 width="100px" height="100px" viewBox="0 0 100 100" enable-background="new 0 0 100 100" xml:space="preserve">
<g>
	<path fill="#333333" d="M15,49.771c38.605,43.749,70,0,70,0C46.401,7.051,15,49.771,15,49.771z M49.995,64.859
		c-8.201,0-14.852-6.647-14.852-14.853c0-8.213,6.651-14.863,14.852-14.863c8.215,0,14.862,6.65,14.862,14.863
		C64.857,58.212,58.21,64.859,49.995,64.859z"/>
	<path fill="#333333" d="M49.995,42.482c-4.152,0-7.521,3.365-7.521,7.525c0,4.151,3.368,7.531,7.521,7.531
		c4.159,0,7.539-3.38,7.539-7.531C57.533,45.848,54.154,42.482,49.995,42.482z"/>
</g>
</svg>
