<?xml version="1.0" encoding="utf-8"?>
<!-- Generator: Adobe Illustrator 18.1.0, SVG Export Plug-In . SVG Version: 6.00 Build 0)  -->
<!DOCTYPE svg PUBLIC "-//W3C//DTD SVG 1.1//EN" "http://www.w3.org/Graphics/SVG/1.1/DTD/svg11.dtd">
<svg version="1.1" id="Layer_1" xmlns="http://www.w3.org/2000/svg" xmlns:xlink="http://www.w3.org/1999/xlink" x="0px" y="0px"
	 viewBox="0 0 300 300" enable-background="new 0 0 300 300" xml:space="preserve">
<path fill="#22A5A1" d="M162.2,29.1h-12.3c-1.1,0-2-0.9-2-2V9.6c0-1.1,0.9-2,2-2h12.3c1.1,0,2,0.9,2,2v17.5
	C164.2,28.2,163.3,29.1,162.2,29.1z"/>
<path fill="#22A5A1" d="M145,29.1h-11.2c-1.1,0-2-0.9-2-2v-6.5c0-1.1,0.9-2,2-2H145c1.1,0,2,0.9,2,2v6.5
	C147,28.2,146.1,29.1,145,29.1z"/>
<path fill="#59BCAC" d="M98.8,132.9H80.1c-1.1,0-2-0.9-2-2V117c0-1.1,0.9-2,2-2h18.8c1.1,0,2,0.9,2,2v13.8
	C100.8,132,99.9,132.9,98.8,132.9z"/>
<path fill="#22A5A1" d="M162.2,48.5h-12.3c-1.1,0-2-0.9-2-2V31.8c0-1.1,0.9-2,2-2h12.3c1.1,0,2,0.9,2,2v14.7
	C164.2,47.6,163.3,48.5,162.2,48.5z"/>
<path fill="#22A5A1" d="M184.1,48.7h-17c-1.1,0-2-0.9-2-2V31.8c0-1.1,0.9-2,2-2h17c1.1,0,2,0.9,2,2v14.9
	C186.1,47.8,185.2,48.7,184.1,48.7z"/>
<path fill="#22A5A1" d="M145,48.7h-18.8c-1.1,0-2-0.9-2-2V31.8c0-1.1,0.9-2,2-2H145c1.1,0,2,0.9,2,2v14.9
	C147,47.8,146.1,48.7,145,48.7z"/>
<path fill="#22A5A1" d="M145,69.7h-18.8c-1.1,0-2-0.9-2-2V51.5c0-1.1,0.9-2,2-2H145c1.1,0,2,0.9,2,2v16.2
	C147,68.8,146.1,69.7,145,69.7z"/>
<path fill="#59BCAC" d="M119.4,159.6H104c-1.1,0-2-0.9-2-2v-21c0-1.1,0.9-2,2-2h15.3c1.1,0,2,0.9,2,2v21
	C121.4,158.7,120.5,159.6,119.4,159.6z"/>
<path fill="#22A5A1" d="M145,92.3h-14.7c-1.1,0-2-0.9-2-2V72.5c0-1.1,0.9-2,2-2H145c1.1,0,2,0.9,2,2v17.8
	C147,91.4,146.1,92.3,145,92.3z"/>
<path fill="#59BCAC" d="M145,160h-5.4c-1.1,0-2-0.9-2-2v-6.3c0-1.1,0.9-2,2-2h5.4c1.1,0,2,0.9,2,2v6.3C147,159.1,146.1,160,145,160z
	"/>
<path fill="#22A5A1" d="M120.9,63.5h-3.6c-1.1,0-2-0.9-2-2v-9.7c0-1.1,0.9-2,2-2h3.6c1.1,0,2,0.9,2,2v9.7
	C122.9,62.6,122,63.5,120.9,63.5z"/>
<path fill="#22A5A1" d="M162.2,69.7h-12.3c-1.1,0-2-0.9-2-2V51.3c0-1.1,0.9-2,2-2h12.3c1.1,0,2,0.9,2,2v16.4
	C164.2,68.8,163.3,69.7,162.2,69.7z"/>
<path fill="#22A5A1" d="M185.1,92.3h-18c-1.1,0-2-0.9-2-2V72.5c0-1.1,0.9-2,2-2h18c1.1,0,2,0.9,2,2v17.8
	C187.1,91.4,186.2,92.3,185.1,92.3z"/>
<path fill="#22A5A1" d="M203.8,103.5h-13.6c-1.1,0-2-0.9-2-2v-6.4c0-1.1,0.9-2,2-2h13.6c1.1,0,2,0.9,2,2v6.4
	C205.8,102.6,204.9,103.5,203.8,103.5z"/>
<path fill="#0D9672" d="M185.1,203.4h-4.8c-1.1,0-2-0.9-2-2v-16c0-1.1,0.9-2,2-2h4.8c1.1,0,2,0.9,2,2v16
	C187.1,202.5,186.2,203.4,185.1,203.4z"/>
<path fill="#22A5A1" d="M185.1,113.9h-18c-1.1,0-2-0.9-2-2V95.1c0-1.1,0.9-2,2-2h18c1.1,0,2,0.9,2,2v16.8
	C187.1,113,186.2,113.9,185.1,113.9z"/>
<path fill="#159674" d="M206.2,138.2h-16c-1.1,0-2-0.9-2-2V117c0-1.1,0.9-2,2-2h16c1.1,0,2,0.9,2,2v19.2
	C208.2,137.3,207.3,138.2,206.2,138.2z"/>
<path fill="#7FCACF" d="M163.6,181.9h-6.1c-1.1,0-2-0.9-2-2v-6.7c0-1.1,0.9-2,2-2h6.1c1.1,0,2,0.9,2,2v6.7
	C165.6,181,164.7,181.9,163.6,181.9z"/>
<path fill="#3EB498" d="M227.5,181.9h-16.1c-1.1,0-2-0.9-2-2v-16.6c0-1.1,0.9-2,2-2h16.1c1.1,0,2,0.9,2,2v16.6
	C229.5,181,228.6,181.9,227.5,181.9z"/>
<path fill="#22A5A1" d="M162.2,92.4h-12.3c-1.1,0-2-0.9-2-2V72.5c0-1.1,0.9-2,2-2h12.3c1.1,0,2,0.9,2,2v17.8
	C164.2,91.5,163.3,92.4,162.2,92.4z"/>
<path fill="#22A5A1" d="M184.1,69.7h-17c-1.1,0-2-0.9-2-2V51.3c0-1.1,0.9-2,2-2h17c1.1,0,2,0.9,2,2v16.4
	C186.1,68.8,185.2,69.7,184.1,69.7z"/>
<path fill="#22A5A1" d="M180.5,29.1h-13.3c-1.1,0-2-0.9-2-2V10.6c0-1.1,0.9-2,2-2h13.3c1.1,0,2,0.9,2,2v16.6
	C182.5,28.2,181.6,29.1,180.5,29.1z"/>
<path fill="#22A5A1" d="M198.5,48.5h-9.8c-1.1,0-2-0.9-2-2v-9.9c0-1.1,0.9-2,2-2h9.8c1.1,0,2,0.9,2,2v9.9
	C200.5,47.6,199.6,48.5,198.5,48.5z"/>
<path fill="#86C9B9" d="M185.1,138.2h-18c-1.1,0-2-0.9-2-2V117c0-1.1,0.9-2,2-2h18c1.1,0,2,0.9,2,2v19.2
	C187.1,137.3,186.2,138.2,185.1,138.2z"/>
<path fill="#119673" d="M227.6,203.4h-16.2c-1.1,0-2-0.9-2-2v-16c0-1.1,0.9-2,2-2h16.2c1.1,0,2,0.9,2,2v16
	C229.6,202.5,228.7,203.4,227.6,203.4z"/>
<path fill="#3EB498" d="M206.2,182.1h-16c-1.1,0-2-0.9-2-2v-16.8c0-1.1,0.9-2,2-2h16c1.1,0,2,0.9,2,2v16.8
	C208.2,181.2,207.3,182.1,206.2,182.1z"/>
<path fill="#86C9B9" d="M185.1,181.9h-4.8c-1.1,0-2-0.9-2-2v-16.6c0-1.1,0.9-2,2-2h4.8c1.1,0,2,0.9,2,2v16.6
	C187.1,181,186.2,181.9,185.1,181.9z"/>
<path fill="#7FCACF" d="M155,234.8h-7.3c-1.1,0-2-0.9-2-2v-3.9c0-1.1,0.9-2,2-2h7.3c1.1,0,2,0.9,2,2v3.9
	C157,233.9,156.1,234.8,155,234.8z"/>
<path fill="#3EB498" d="M216.2,160h-4.8c-1.1,0-2-0.9-2-2v-16.6c0-1.1,0.9-2,2-2h4.8c1.1,0,2,0.9,2,2V158
	C218.2,159.1,217.3,160,216.2,160z"/>
<path fill="#3EB498" d="M206.2,160h-16c-1.1,0-2-0.9-2-2v-16.6c0-1.1,0.9-2,2-2h16c1.1,0,2,0.9,2,2V158
	C208.2,159.1,207.3,160,206.2,160z"/>
<path fill="#86C9B9" d="M185.1,160h-13.6c-1.1,0-2-0.9-2-2v-16.6c0-1.1,0.9-2,2-2h13.6c1.1,0,2,0.9,2,2V158
	C187.1,159.1,186.2,160,185.1,160z"/>
<path fill="#119673" d="M206.4,203.4h-15.9c-1.1,0-2-0.9-2-2v-16c0-1.1,0.9-2,2-2h15.9c1.1,0,2,0.9,2,2v16
	C208.4,202.5,207.5,203.4,206.4,203.4z"/>
<path fill="#0D9672" d="M249.4,203.4H233c-1.1,0-2-0.9-2-2v-15.6c0-1.1,0.9-2,2-2h16.4c1.1,0,2,0.9,2,2v15.6
	C251.4,202.5,250.5,203.4,249.4,203.4z"/>
<path fill="#2AB194" d="M185.1,247.2h-15.9c-1.1,0-2-0.9-2-2v-16.3c0-1.1,0.9-2,2-2h15.9c1.1,0,2,0.9,2,2v16.3
	C187.1,246.3,186.2,247.2,185.1,247.2z"/>
<path fill="#2AB194" d="M206.4,247.2h-15.9c-1.1,0-2-0.9-2-2v-16.3c0-1.1,0.9-2,2-2h15.9c1.1,0,2,0.9,2,2v16.3
	C208.4,246.3,207.5,247.2,206.4,247.2z"/>
<path fill="#2AB194" d="M227.7,247.2h-16.3c-1.1,0-2-0.9-2-2v-16.3c0-1.1,0.9-2,2-2h16.3c1.1,0,2,0.9,2,2v16.3
	C229.7,246.3,228.8,247.2,227.7,247.2z"/>
<path fill="#2AB194" d="M240.4,247.2H233c-1.1,0-2-0.9-2-2v-16.3c0-1.1,0.9-2,2-2h7.4c1.1,0,2,0.9,2,2v16.3
	C242.4,246.3,241.5,247.2,240.4,247.2z"/>
<path fill="#2AB194" d="M185.1,269.2h-16.6c-1.1,0-2-0.9-2-2v-16.9c0-1.1,0.9-2,2-2h16.6c1.1,0,2,0.9,2,2v16.9
	C187.1,268.3,186.2,269.2,185.1,269.2z"/>
<path fill="#2AB194" d="M206.1,269.2h-15.6c-1.1,0-2-0.9-2-2v-16.8c0-1.1,0.9-2,2-2h15.6c1.1,0,2,0.9,2,2v16.8
	C208.1,268.3,207.2,269.2,206.1,269.2z"/>
<path fill="#2AB194" d="M227.6,269.2h-16.2c-1.1,0-2-0.9-2-2v-16.8c0-1.1,0.9-2,2-2h16.2c1.1,0,2,0.9,2,2v16.8
	C229.6,268.3,228.7,269.2,227.6,269.2z"/>
<path fill="#2AB194" d="M249.4,269.3H233c-1.1,0-2-0.9-2-2v-17c0-1.1,0.9-2,2-2h16.4c1.1,0,2,0.9,2,2v17
	C251.4,268.4,250.5,269.3,249.4,269.3z"/>
<path fill="#28B094" d="M163.1,269.3h-16.4c-1.1,0-2-0.9-2-2v-16.9c0-1.1,0.9-2,2-2h16.4c1.1,0,2,0.9,2,2v16.9
	C165.1,268.4,164.2,269.3,163.1,269.3z"/>
<path fill="#22A5A1" d="M198.9,65.7h-9.8c-1.1,0-2-0.9-2-2V51.3c0-1.1,0.9-2,2-2h9.8c1.1,0,2,0.9,2,2v12.4
	C200.9,64.8,200,65.7,198.9,65.7z"/>
<path fill="#59BCAC" d="M98.8,159.7H80.1c-1.1,0-2-0.9-2-2v-21.1c0-1.1,0.9-2,2-2h18.8c1.1,0,2,0.9,2,2v21.1
	C100.8,158.8,99.9,159.7,98.8,159.7z"/>
<path fill="#ACD7CD" d="M98.8,184.3H80.1c-1.1,0-2-0.9-2-2v-19.9c0-1.1,0.9-2,2-2h18.8c1.1,0,2,0.9,2,2v19.9
	C100.8,183.4,99.9,184.3,98.8,184.3z"/>
<path fill="#ACD7CD" d="M98.8,209.5H80.1c-1.1,0-2-0.9-2-2v-19.9c0-1.1,0.9-2,2-2h18.8c1.1,0,2,0.9,2,2v19.9
	C100.8,208.6,99.9,209.5,98.8,209.5z"/>
<path fill="#ACD7CD" d="M74.6,210.2H58.5c-1.1,0-2-0.9-2-2v-19.9c0-1.1,0.9-2,2-2h16.1c1.1,0,2,0.9,2,2v19.9
	C76.6,209.3,75.7,210.2,74.6,210.2z"/>
<path fill="#ACD7CD" d="M53.5,210.2H34.8c-1.1,0-2-0.9-2-2v-19.9c0-1.1,0.9-2,2-2h18.6c1.1,0,2,0.9,2,2v19.9
	C55.5,209.3,54.6,210.2,53.5,210.2z"/>
<path fill="#ACD7CD" d="M74.6,184.5H57.3c-1.1,0-2-0.9-2-2v-19.9c0-1.1,0.9-2,2-2h17.3c1.1,0,2,0.9,2,2v19.9
	C76.6,183.6,75.7,184.5,74.6,184.5z"/>
<path fill="#ACD7CD" d="M74.6,159.1H57.5c-1.1,0-2-0.9-2-2v-20.5c0-1.1,0.9-2,2-2h17.1c1.1,0,2,0.9,2,2v20.5
	C76.6,158.2,75.7,159.1,74.6,159.1z"/>
<path fill="#ACD7CD" d="M52.3,159.1H30c-1.1,0-2-0.9-2-2v-20.5c0-1.1,0.9-2,2-2h22.2c1.1,0,2,0.9,2,2v20.5
	C54.3,158.2,53.4,159.1,52.3,159.1z"/>
<path fill="#ACD7CD" d="M74.6,132.9H57.3c-1.1,0-2-0.9-2-2V117c0-1.1,0.9-2,2-2h17.3c1.1,0,2,0.9,2,2v13.8
	C76.6,132,75.7,132.9,74.6,132.9z"/>
<path fill="#22A5A1" d="M121.5,29.1h-4.4c-1.1,0-2-0.9-2-2v-6.5c0-1.1,0.9-2,2-2h4.4c1.1,0,2,0.9,2,2v6.5
	C123.5,28.2,122.6,29.1,121.5,29.1z"/>
<path fill="#22A5A1" d="M162.2,113.9h-12.3c-1.1,0-2-0.9-2-2V95.1c0-1.1,0.9-2,2-2h12.3c1.1,0,2,0.9,2,2v16.8
	C164.2,113,163.3,113.9,162.2,113.9z"/>
<path fill="#7FCACF" d="M164.1,203.4h-14.2c-1.1,0-2-0.9-2-2V186c0-1.1,0.9-2,2-2h14.2c1.1,0,2,0.9,2,2v15.4
	C166.1,202.5,165.2,203.4,164.1,203.4z"/>
<path fill="#1FA4A0" d="M162.2,131h-12.3c-1.1,0-2-0.9-2-2v-12c0-1.1,0.9-2,2-2h12.3c1.1,0,2,0.9,2,2v12
	C164.2,130.1,163.3,131,162.2,131z"/>
<path fill="#59BCAC" d="M114.7,132.9H104c-1.1,0-2-0.9-2-2V125c0-1.1,0.9-2,2-2h10.7c1.1,0,2,0.9,2,2v5.8
	C116.7,132,115.8,132.9,114.7,132.9z"/>
<path fill="#0D9672" d="M185.1,225.6h-4.8c-1.1,0-2-0.9-2-2v-16.4c0-1.1,0.9-2,2-2h4.8c1.1,0,2,0.9,2,2v16.4
	C187.1,224.7,186.2,225.6,185.1,225.6z"/>
<path fill="#119673" d="M227.7,225.6h-16.3c-1.1,0-2-0.9-2-2v-16.4c0-1.1,0.9-2,2-2h16.3c1.1,0,2,0.9,2,2v16.4
	C229.7,224.7,228.8,225.6,227.7,225.6z"/>
<path fill="#119673" d="M206.2,225.6h-15.7c-1.1,0-2-0.9-2-2v-16.4c0-1.1,0.9-2,2-2h15.7c1.1,0,2,0.9,2,2v16.4
	C208.2,224.7,207.3,225.6,206.2,225.6z"/>
<path fill="#0D9672" d="M249.4,225.6H233c-1.1,0-2-0.9-2-2v-16.4c0-1.1,0.9-2,2-2h16.4c1.1,0,2,0.9,2,2v16.4
	C251.4,224.7,250.5,225.6,249.4,225.6z"/>
<path fill="#7FCACF" d="M164.1,225.6h-16.4c-1.1,0-2-0.9-2-2V207c0-1.1,0.9-2,2-2h16.4c1.1,0,2,0.9,2,2v16.6
	C166.1,224.7,165.2,225.6,164.1,225.6z"/>
<path fill="#7FCACF" d="M141.7,234.8H131c-1.1,0-2-0.9-2-2v-3.9c0-1.1,0.9-2,2-2h10.7c1.1,0,2,0.9,2,2v3.9
	C143.7,233.9,142.8,234.8,141.7,234.8z"/>
<path fill="#7FCACF" d="M141.7,225.6h-8.1c-1.1,0-2-0.9-2-2v-11.1c0-1.1,0.9-2,2-2h8.1c1.1,0,2,0.9,2,2v11.1
	C143.7,224.7,142.8,225.6,141.7,225.6z"/>
<path fill="#ACD7CD" d="M52.3,172.8h-9.1c-1.1,0-2-0.9-2-2v-8.5c0-1.1,0.9-2,2-2h9.1c1.1,0,2,0.9,2,2v8.5
	C54.3,171.9,53.4,172.8,52.3,172.8z"/>
<path fill="#28B094" d="M158.5,280.9h-11.8c-1.1,0-2-0.9-2-2v-6.4c0-1.1,0.9-2,2-2h11.8c1.1,0,2,0.9,2,2v6.4
	C160.5,280,159.6,280.9,158.5,280.9z"/>
<path fill="#28B094" d="M127.6,280.3h-10.4c-1.1,0-2-0.9-2-2v-6.4c0-1.1,0.9-2,2-2h10.4c1.1,0,2,0.9,2,2v6.4
	C129.6,279.4,128.7,280.3,127.6,280.3z"/>
<path fill="#28B094" d="M141.2,269.2h-7.6c-1.1,0-2-0.9-2-2v-6.4c0-1.1,0.9-2,2-2h7.6c1.1,0,2,0.9,2,2v6.4
	C143.2,268.3,142.3,269.2,141.2,269.2z"/>
<path fill="#2AB194" d="M260.4,269.2h-5.9c-1.1,0-2-0.9-2-2v-16.8c0-1.1,0.9-2,2-2h5.9c1.1,0,2,0.9,2,2v16.8
	C262.4,268.3,261.5,269.2,260.4,269.2z"/>
<path fill="#28B094" d="M127.6,290.9h-10.4c-1.1,0-2-0.9-2-2v-5.5c0-1.1,0.9-2,2-2h10.4c1.1,0,2,0.9,2,2v5.5
	C129.6,290,128.7,290.9,127.6,290.9z"/>
<path fill="#28B094" d="M111.9,290.9h-10.8c-1.1,0-2-0.9-2-2v-5.5c0-1.1,0.9-2,2-2h10.8c1.1,0,2,0.9,2,2v5.5
	C113.9,290,113,290.9,111.9,290.9z"/>
<path fill="#ACD7CD" d="M53.3,225.4H30c-1.1,0-2-0.9-2-2v-10.1c0-1.1,0.9-2,2-2h23.2c1.1,0,2,0.9,2,2v10.1
	C55.3,224.5,54.4,225.4,53.3,225.4z"/>
<path fill="#1FA4A0" d="M145,130.4h-6.1c-1.1,0-2-0.9-2-2V117c0-1.1,0.9-2,2-2h6.1c1.1,0,2,0.9,2,2v11.4
	C147,129.5,146.1,130.4,145,130.4z"/>
<path fill="#ACD7CD" d="M74.6,225.4H58.5c-1.1,0-2-0.9-2-2v-10.3c0-1.1,0.9-2,2-2h16.1c1.1,0,2,0.9,2,2v10.3
	C76.6,224.5,75.7,225.4,74.6,225.4z"/>
<path fill="#5ABCAC" d="M113.8,184.5H104c-1.1,0-2-0.9-2-2v-20.2c0-1.1,0.9-2,2-2h9.7c1.1,0,2,0.9,2,2v20.2
	C115.8,183.6,114.9,184.5,113.8,184.5z"/>
<path fill="#ACD7CD" d="M113.2,209.5H104c-1.1,0-2-0.9-2-2v-19.9c0-1.1,0.9-2,2-2h9.1c1.1,0,2,0.9,2,2v19.9
	C115.2,208.6,114.3,209.5,113.2,209.5z"/>
<path fill="#22A5A1" d="M112.2,29.1h-5.6c-1.1,0-2-0.9-2-2v-6.3c0-1.1,0.9-2,2-2h5.6c1.1,0,2,0.9,2,2v6.3
	C114.2,28.2,113.3,29.1,112.2,29.1z"/>
<path fill="#7FCACF" d="M164.1,242.1h-3.4c-1.1,0-2-0.9-2-2v-11.1c0-1.1,0.9-2,2-2h3.4c1.1,0,2,0.9,2,2v11.1
	C166.1,241.2,165.2,242.1,164.1,242.1z"/>
<path fill="#ACD7CD" d="M66.3,233.6H45.9c-1.1,0-2-0.9-2-2v-3c0-1.1,0.9-2,2-2h20.4c1.1,0,2,0.9,2,2v3
	C68.3,232.7,67.4,233.6,66.3,233.6z"/>
<path fill="#ACD7CD" d="M98.8,218.4H80.1c-1.1,0-2-0.9-2-2v-3.8c0-1.1,0.9-2,2-2h18.8c1.1,0,2,0.9,2,2v3.8
	C100.8,217.5,99.9,218.4,98.8,218.4z"/>
<path fill="#22A5A1" d="M145,113.7h-14.7c-1.1,0-2-0.9-2-2V95.3c0-1.1,0.9-2,2-2H145c1.1,0,2,0.9,2,2v16.5
	C147,112.8,146.1,113.7,145,113.7z"/>
<path fill="#22A5A1" d="M125,105.8h-7.2c-1.1,0-2-0.9-2-2v-8.3c0-1.1,0.9-2,2-2h7.2c1.1,0,2,0.9,2,2v8.3
	C127,104.9,126.1,105.8,125,105.8z"/>
<path fill="#0D9672" d="M260.4,203.4h-5.9c-1.1,0-2-0.9-2-2v-6c0-1.1,0.9-2,2-2h5.9c1.1,0,2,0.9,2,2v6
	C262.4,202.5,261.5,203.4,260.4,203.4z"/>
<path fill="#22A5A1" d="M125,92.4h-2.1c-1.1,0-2-0.9-2-2V79.1c0-1.1,0.9-2,2-2h2.1c1.1,0,2,0.9,2,2v11.3
	C127,91.5,126.1,92.4,125,92.4z"/>
<path fill="#2AB194" d="M271.2,269.2h-5.4c-1.1,0-2-0.9-2-2v-6.4c0-1.1,0.9-2,2-2h5.4c1.1,0,2,0.9,2,2v6.4
	C273.2,268.3,272.3,269.2,271.2,269.2z"/>
<path fill="#28B094" d="M141.2,290.9h-7.6c-1.1,0-2-0.9-2-2v-5.5c0-1.1,0.9-2,2-2h7.6c1.1,0,2,0.9,2,2v5.5
	C143.2,290,142.3,290.9,141.2,290.9z"/>
<path fill="#0D9672" d="M260.4,215.3h-5.9c-1.1,0-2-0.9-2-2V207c0-1.1,0.9-2,2-2h5.9c1.1,0,2,0.9,2,2v6.3
	C262.4,214.4,261.5,215.3,260.4,215.3z"/>
<path fill="#28B094" d="M140.7,280.3h-7.6c-1.1,0-2-0.9-2-2v-5.8c0-1.1,0.9-2,2-2h7.6c1.1,0,2,0.9,2,2v5.8
	C142.7,279.4,141.8,280.3,140.7,280.3z"/>
<path fill="#7FCACE" d="M174.8,203.4H170c-1.1,0-2-0.9-2-2v-16c0-1.1,0.9-2,2-2h4.8c1.1,0,2,0.9,2,2v16
	C176.8,202.5,175.9,203.4,174.8,203.4z"/>
<path fill="#7FCACE" d="M174.8,181.9H170c-1.1,0-2-0.9-2-2v-16.6c0-1.1,0.9-2,2-2h4.8c1.1,0,2,0.9,2,2v16.6
	C176.8,181,175.9,181.9,174.8,181.9z"/>
<path fill="#7FCACE" d="M174.8,225.6H170c-1.1,0-2-0.9-2-2v-16.4c0-1.1,0.9-2,2-2h4.8c1.1,0,2,0.9,2,2v16.4
	C176.8,224.7,175.9,225.6,174.8,225.6z"/>
<path fill="#159674" d="M206.4,113.9h-16.2c-1.1,0-2-0.9-2-2v-5.2c0-1.1,0.9-2,2-2h16.2c1.1,0,2,0.9,2,2v5.2
	C208.4,113,207.5,113.9,206.4,113.9z"/>
</svg>
